<?xml version="1.0" encoding="utf-8"?>
<!-- Generator: Adobe Illustrator 24.1.2, SVG Export Plug-In . SVG Version: 6.00 Build 0)  -->
<svg version="1.1" id="Camada_1" xmlns="http://www.w3.org/2000/svg" xmlns:xlink="http://www.w3.org/1999/xlink" x="0px" y="0px"
	 viewBox="0 0 1737.32 1118.6" style="enable-background:new 0 0 1737.32 1118.6;" xml:space="preserve">
<style type="text/css">
	.st0{fill:url(#SVGID_1_);stroke:#C7C7C9;stroke-width:10;stroke-miterlimit:10;}
	.st1{fill:#FFFFFF;}
	.st2{fill:#EB8998;}
	.st3{fill:url(#SVGID_2_);}
	.st4{fill:url(#SVGID_3_);}
	.st5{fill:url(#SVGID_4_);stroke:#C7C7C9;stroke-width:10;stroke-miterlimit:10;}
	.st6{fill:url(#SVGID_5_);}
	.st7{fill:url(#SVGID_6_);}
	.st8{fill:url(#SVGID_7_);stroke:#C7C7C9;stroke-width:10;stroke-miterlimit:10;}
	.st9{fill:url(#SVGID_8_);}
	.st10{fill:url(#SVGID_9_);}
	.st11{fill:#FFFFFF;stroke:#000000;stroke-miterlimit:10;}
</style>
<g>
	<linearGradient id="SVGID_1_" gradientUnits="userSpaceOnUse" x1="578.6" y1="366.6709" x2="1094.6" y2="366.6709">
		<stop  offset="0" style="stop-color:#EDF5F8"/>
		<stop  offset="1" style="stop-color:#CCCACD"/>
	</linearGradient>
	<path class="st0" d="M1094.6,158.94c0-55.67-40.6-100.79-90.67-100.79h-42.07c-29.71,0-55.79-11.78-70.58-29.52
		c-0.17,0.09-0.34,0.18-0.51,0.27c-10.85-13.06-31.05-21.83-54.18-21.83c-23.48,0-43.94,9.04-54.67,22.43
		c-0.09-0.06-0.17-0.12-0.26-0.18c-13.36,15.58-35.5,26.42-61.1,28.47c0.02,0.12,0.04,0.24,0.07,0.36h-51.37
		c-50.07,0-90.67,45.13-90.67,100.79v16.88c11.47,50.4,18.56,119.76,18.56,196.33s-7.09,145.93-18.56,196.33v16.87
		c0,55.67,40.6,100.79,90.67,100.79h13.8c2.07-0.35,4.25-0.7,6.53-1.03v34.65c0,3.41,8.52,6.15,19,6.15c10.49,0,19-2.74,19-6.15
		v-39.19c24.76-1.92,54.56-3.22,87-3.61v42.5c0,3.63,9.85,6.6,22,6.6s22-2.97,22-6.6v-42.51c31.58,0.39,60.64,1.62,85,3.46v40.56
		c0,2.92,9.63,5.28,21.49,5.28c11.88,0,21.51-2.36,21.51-5.28v-35.45c1.3,0.2,2.57,0.4,3.79,0.61h13.54
		c50.07,0,90.67-45.13,90.67-100.79v-20.55c-10.99-50.08-17.74-117.93-17.74-192.65c0-74.73,6.75-142.59,17.74-192.65V158.94z
		 M836.84,35.36c17.44,0,31.56,14.13,31.56,31.56s-14.12,31.56-31.56,31.56c-17.43,0-31.56-14.13-31.56-31.56
		S819.41,35.36,836.84,35.36z"/>
	<path class="st1" d="M1039.01,174.04v5.38c-7.66,38.47-13.03,93.37-14.69,155.93c-2.74,0.75-5.48,1.46-8.22,2.12
		c-81.83,20.2-163.59,9.54-230.5-1.37c-40.84-6.65-76.14-13.4-102.55-13.29c-13.48,0.06-24.65,1.9-33.05,6.46
		c-2.9,1.57-5.47,3.46-7.69,5.73c-0.02-0.79-0.04-1.57-0.05-2.36c-0.03-1.21-0.06-2.42-0.09-3.63c-0.09-3.63-0.2-7.23-0.32-10.8
		c-0.03-1.02-0.07-2.03-0.1-3.04c-0.07-1.83-0.14-3.64-0.21-5.44c-0.07-1.84-0.14-3.68-0.22-5.51c-0.16-3.55-0.33-7.06-0.5-10.53
		c-0.06-1.14-0.11-2.29-0.18-3.43c-0.07-1.28-0.14-2.56-0.21-3.83c-0.11-2.12-0.24-4.21-0.37-6.3c-0.07-1.14-0.14-2.26-0.21-3.38
		c-0.14-2.21-0.28-4.4-0.44-6.57c-2.53-36.75-6.44-69.07-11.32-94.6c-0.35-1.84-0.7-3.64-1.06-5.4c0-0.04-0.01-0.08-0.01-0.11
		c-0.21-7.15,4.14-13.99,12.28-20.32c28.32-19.24,102.57-32.96,189.72-32.96c86.8,0,160.83,13.62,189.4,32.75
		c0.02,0.02,0.05,0.04,0.08,0.06c2.56,1.97,4.76,3.99,6.56,6.05c8.47,5.36,13.35,11.16,13.89,17.24
		C1038.99,173.27,1039.01,173.66,1039.01,174.04z"/>
	<path class="st2" d="M1030.6,567.06v5.37c0,0.38-0.02,0.77-0.06,1.15c-0.51,5.72-4.86,11.2-12.43,16.29
		c-0.04,0.04-0.07,0.07-0.11,0.08c-28.56,19.12-102.59,32.75-189.39,32.75c-86.04,0-159.52-13.38-188.62-32.24
		c-0.37-0.24-0.74-0.49-1.1-0.73c-7.44-5.05-11.72-10.49-12.23-16.15c-0.04-0.38-0.06-0.77-0.06-1.15v-3.21
		c5.38-26.28,9.67-60.56,12.4-99.92c0.15-2.17,0.29-4.36,0.44-6.57c0.07-1.12,0.14-2.24,0.21-3.37c0.12-2.09,0.25-4.19,0.37-6.31
		c0.07-1.27,0.14-2.55,0.2-3.83c0.06-1.14,0.12-2.28,0.18-3.43c0.18-3.48,0.34-6.99,0.5-10.53c0.07-1.82,0.15-3.65,0.22-5.5
		c0.08-1.81,0.14-3.63,0.21-5.45c0.03-1.01,0.07-2.03,0.1-3.04c0.12-3.58,0.23-7.18,0.32-10.8c0.03-1.21,0.06-2.42,0.09-3.62
		c0.03-1.21,0.06-2.43,0.08-3.65c0.03-1.22,0.06-2.44,0.08-3.67c0.01-0.32,0.01-0.65,0.02-0.98c0.04-2.12,0.07-4.26,0.1-6.4
		c0.11-7.36,0.16-14.8,0.16-22.33c0-7.58-0.05-15.08-0.16-22.48c-0.03-2.14-0.06-4.28-0.1-6.4c-0.01-0.33-0.02-0.65-0.02-0.98
		c-0.02-1.23-0.05-2.45-0.08-3.67c-0.01-0.43-0.02-0.85-0.03-1.28c2.22-2.26,4.8-4.16,7.7-5.73c8.41-4.56,19.57-6.4,33.05-6.46
		c26.42-0.11,61.72,6.63,102.55,13.29c66.91,10.9,148.67,21.56,230.5,1.37c-0.22,10.58-0.33,21.38-0.33,32.34
		c0,18.65,0.33,36.83,0.95,54.34C1018.33,481.29,1023.48,531.28,1030.6,567.06z"/>
	<linearGradient id="SVGID_2_" gradientUnits="userSpaceOnUse" x1="836.6013" y1="721.48" x2="836.6013" y2="322.8187">
		<stop  offset="0" style="stop-color:#EA1B23"/>
		<stop  offset="1" style="stop-color:#C9141D"/>
	</linearGradient>
	<path class="st3" d="M1038.6,574.21v2.61c0,11.73-12.24,22.63-33.28,31.75c-0.01,0.01-0.02,0.02-0.04,0.02
		c-0.01,0.01-0.02,0.01-0.04,0.02c-0.01,0-0.01,0.01-0.02,0.01c-1.78,0.53-3.51,1.24-5.16,2.12c-0.01,0-0.02,0.01-0.03,0.01
		c-11.43,6.09-19.43,20.03-19.43,36.23v70.38c0,2.18-6.94,3.94-15.5,3.94s-15.5-1.76-15.5-3.94v-68.21h-0.01
		c-0.2-11.62-9.28-20.96-20.47-21h-1.2c-0.76,0-1.5,0.04-2.24,0.11c-1.22,0.12-2.42,0.33-3.57,0.63
		c-16.78,2.03-34.82,3.48-53.72,4.26h-0.12c0,0-0.24,0.73-0.36,0.74c-0.35,0-0.7,0.02-1.05,0.06c-0.04,0-0.09,0-0.14,0.01
		c-7.51,0.76-13.4,7.02-13.57,15.19h-0.55v67.47c0.54,2.68-6.69,4.86-15.61,4.86s-16.15-2.18-16.39-4.86V648.3
		c-0.04,0-0.11-0.01-0.18-0.02c-0.36-7.58-6.29-13.7-13.79-14.34c-0.05-0.01-0.1-0.01-0.15-0.01c-0.39-0.04-1.17-0.78-1.17-0.78
		h-2.01c-19.66-0.89-38.36-2.62-55.65-5.07c0,0.07-0.01,0.13-0.03,0.19c-1.34-0.28-2.72-0.42-4.14-0.42
		c-11.06,0-20.12,8.76-20.83,19.83c-0.02-0.01-0.04-0.02-0.05-0.04v67.29c0,2.52-6.27,4.56-14,4.56c-7.73,0-14-2.04-14-4.56v-67.32
		c-0.16-16.57-8.71-30.67-20.7-36.28c-0.37-0.18-0.75-0.34-1.12-0.5c-0.66-0.27-1.32-0.52-2-0.74
		c-14.29-5.84-24.87-12.48-30.79-19.63c-3.65-4.42-5.52-9.03-5.38-13.78c0-0.04,0.01-0.07,0.01-0.11c0.36-1.76,0.71-3.56,1.06-5.41
		c8.95-46.84,14.63-116.55,14.63-194.38c0-16.23-0.25-32.11-0.72-47.5c8.41-4.56,19.57-6.4,33.05-6.46
		c26.42-0.11,61.72,6.63,102.55,13.29c66.91,10.9,148.67,21.56,230.5,1.37c2.74-0.66,5.48-1.37,8.22-2.12
		c-0.36,13.49-0.55,27.34-0.55,41.45C1023.36,456.38,1029.29,527.43,1038.6,574.21z"/>
	<linearGradient id="SVGID_3_" gradientUnits="userSpaceOnUse" x1="647.2843" y1="358.1757" x2="851.0293" y2="561.9207">
		<stop  offset="0" style="stop-color:#F15C55"/>
		<stop  offset="1" style="stop-color:#EF2B2D"/>
	</linearGradient>
	<path class="st4" d="M818.41,594.54c-46.56,3.02-104.07-0.83-130.82-37.22c-26.6-36.18,4.58-67.32,1.22-167.98
		c-0.8-23.89-3.32-46.09-6.17-66.52c26.42-0.11,61.72,6.63,102.55,13.29c0.52,11.57,0.87,24.46,0.82,39.19
		c-0.24,74.28-10.08,81.04-2.16,125.28C791.22,541.73,806.51,573.76,818.41,594.54z"/>
</g>
<g>
	<linearGradient id="SVGID_4_" gradientUnits="userSpaceOnUse" x1="7" y1="366.6709" x2="523" y2="366.6709">
		<stop  offset="0" style="stop-color:#EDF5F8"/>
		<stop  offset="1" style="stop-color:#CCCACD"/>
	</linearGradient>
	<path class="st5" d="M523,158.94c0-55.67-40.6-100.79-90.67-100.79h-42.07c-29.71,0-55.79-11.78-70.58-29.52
		c-0.17,0.09-0.34,0.18-0.51,0.27c-10.85-13.06-31.05-21.83-54.18-21.83c-23.48,0-43.94,9.04-54.67,22.43
		c-0.09-0.06-0.17-0.12-0.26-0.18c-13.36,15.58-35.5,26.42-61.1,28.47c0.02,0.12,0.04,0.24,0.07,0.36H97.67
		C47.6,58.15,7,103.28,7,158.94v16.88c11.47,50.4,18.56,119.76,18.56,196.33S18.47,518.08,7,568.49v16.87
		c0,55.67,40.6,100.79,90.67,100.79h13.8c2.07-0.35,4.25-0.7,6.53-1.03v34.65c0,3.41,8.52,6.15,19,6.15s19-2.74,19-6.15v-39.19
		c24.76-1.92,54.56-3.22,87-3.61v42.5c0,3.63,9.85,6.6,22,6.6c12.15,0,22-2.97,22-6.6v-42.51c31.58,0.39,60.64,1.62,85,3.46v40.56
		c0,2.92,9.63,5.28,21.49,5.28c11.88,0,21.51-2.36,21.51-5.28v-35.45c1.3,0.2,2.57,0.4,3.79,0.61h13.54
		c50.07,0,90.67-45.13,90.67-100.79v-20.55c-10.99-50.08-17.74-117.93-17.74-192.65c0-74.73,6.75-142.59,17.74-192.65V158.94z
		 M265.24,35.36c17.44,0,31.56,14.13,31.56,31.56s-14.12,31.56-31.56,31.56c-17.43,0-31.56-14.13-31.56-31.56
		S247.81,35.36,265.24,35.36z"/>
	<path class="st2" d="M444.47,322.53c-0.46,15.32-0.71,31.13-0.71,47.29c0,18.65,0.33,36.83,0.95,54.34
		c2.03,57.13,7.18,107.12,14.29,142.9v5.38c0,0.38-0.02,0.77-0.06,1.15c-0.51,5.72-4.86,11.2-12.43,16.28
		c-0.04,0.04-0.07,0.07-0.11,0.08c-28.57,19.12-102.59,32.75-189.4,32.75c-87.15,0-161.4-13.72-189.72-32.97
		c-7.44-5.05-11.72-10.49-12.23-16.14c-0.04-0.38-0.06-0.77-0.06-1.15v-3.21c5.38-26.28,9.67-60.57,12.4-99.92
		c0.15-2.17,0.29-4.36,0.44-6.57c0.07-1.12,0.14-2.25,0.21-3.38c0.12-2.09,0.25-4.19,0.37-6.31c0.08-1.27,0.15-2.55,0.21-3.83
		c0.06-1.14,0.12-2.28,0.18-3.43c0.18-3.48,0.34-6.99,0.5-10.53c0.07-1.83,0.15-3.66,0.22-5.51c0.08-1.81,0.14-3.63,0.21-5.45
		c0.03-1.01,0.07-2.03,0.1-3.04c0.12-3.58,0.23-7.18,0.32-10.8c0.03-1.21,0.06-2.42,0.09-3.63c0.03-1.21,0.06-2.43,0.08-3.65
		c0.03-1.22,0.06-2.44,0.08-3.67c0.01-0.32,0.01-0.65,0.02-0.98c0.04-2.12,0.07-4.26,0.1-6.4c0.11-7.36,0.16-14.8,0.16-22.33
		c0-7.58-0.05-15.07-0.16-22.48c-0.03-2.14-0.06-4.28-0.1-6.4c-0.01-0.33-0.02-0.65-0.02-0.98c-0.02-1.23-0.05-2.45-0.08-3.67
		c-0.02-1.22-0.05-2.43-0.08-3.65c-0.02-1.21-0.05-2.42-0.09-3.63c-0.09-3.63-0.2-7.23-0.32-10.8c-0.03-1.02-0.07-2.03-0.1-3.04
		c-0.07-1.83-0.14-3.64-0.21-5.45c-0.07-1.84-0.14-3.68-0.22-5.51c-0.16-3.55-0.33-7.06-0.5-10.53c-0.06-1.14-0.11-2.29-0.18-3.43
		c-0.07-1.28-0.14-2.56-0.21-3.83c-0.11-2.12-0.24-4.22-0.37-6.31c-0.07-1.14-0.14-2.26-0.21-3.38c-0.14-2.21-0.28-4.4-0.44-6.57
		c-2.53-36.75-6.44-69.07-11.32-94.6c-0.35-1.84-0.7-3.64-1.06-5.4c0-0.04-0.01-0.07-0.01-0.11c-0.21-7.14,4.14-13.99,12.28-20.31
		c28.32-19.24,102.57-32.97,189.72-32.97c86.81,0,160.83,13.63,189.4,32.75c0.03,0.02,0.06,0.04,0.09,0.06
		c8.09,6.21,12.51,12.95,12.51,19.98v2.69C451.57,209.58,446.29,262.33,444.47,322.53z"/>
	<linearGradient id="SVGID_5_" gradientUnits="userSpaceOnUse" x1="265" y1="721.4788" x2="265" y2="123.7825">
		<stop  offset="0" style="stop-color:#EA1B23"/>
		<stop  offset="1" style="stop-color:#C9141D"/>
	</linearGradient>
	<path class="st6" d="M467,179.42c-9.31,46.77-15.24,117.83-15.24,197.39c0,79.57,5.94,150.62,15.24,197.4v2.61
		c0,11.73-12.24,22.64-33.28,31.76c-0.01,0.01-0.02,0.02-0.04,0.02c-0.01,0.01-0.02,0.01-0.04,0.02c-0.01,0-0.01,0.01-0.02,0.01
		c-1.79,0.52-3.52,1.24-5.16,2.12c-0.01,0-0.02,0.01-0.03,0.01C417,616.84,409,630.78,409,646.98v70.38c0,2.18-6.94,3.94-15.5,3.94
		c-8.56,0-15.5-1.76-15.5-3.94v-68.21h-0.01c-0.2-11.61-9.28-20.96-20.47-21h-1.2c-0.76,0-1.5,0.04-2.24,0.11
		c-1.22,0.12-2.42,0.33-3.57,0.63c-16.78,2.03-34.82,3.49-53.72,4.26h-0.12c0,0-0.24,0.73-0.36,0.74c-0.35,0-0.7,0.02-1.05,0.06
		c-0.04,0-0.09,0-0.14,0.01c-7.51,0.76-13.4,7.02-13.57,15.19H281v67.47c0.54,2.68-6.69,4.86-15.61,4.86s-16.15-2.18-16.39-4.86
		V648.3c0.1,0-0.04,0-0.18-0.02c-0.36-7.58-6.29-13.7-13.79-14.34c-0.05-0.01-0.1-0.01-0.15-0.01c-0.39-0.04-1.17-0.78-1.17-0.78
		h-2.01c-19.65-0.89-38.35-2.62-55.65-5.07c0,0.07-0.01,0.13-0.03,0.19c-1.34-0.28-2.72-0.42-4.14-0.42
		c-11.06,0-20.12,8.76-20.83,19.83c-0.02-0.01-0.04-0.02-0.05-0.04v67.29c0,2.52-6.27,4.56-14,4.56c-7.73,0-14-2.04-14-4.56v-67.32
		c-0.16-16.57-8.71-30.68-20.7-36.28c-0.37-0.18-0.74-0.34-1.11-0.5c-0.66-0.27-1.32-0.52-2-0.74
		c-23.12-9.46-36.54-20.98-36.17-33.41c0-0.04,0.01-0.07,0.01-0.11c0.36-1.76,0.71-3.56,1.06-5.41
		c8.95-46.84,14.63-116.56,14.63-194.39c0-80.93-6.14-153.07-15.71-199.86v-2.87c0-0.38,0.02-0.77,0.06-1.15
		c2.45-27.23,91.92-49.11,201.95-49.11c110.02,0,199.49,21.88,201.94,49.11c0.04,0.38,0.06,0.77,0.06,1.15V179.42z"/>
	<linearGradient id="SVGID_6_" gradientUnits="userSpaceOnUse" x1="60.5548" y1="244.5763" x2="328.6656" y2="512.6871">
		<stop  offset="0" style="stop-color:#F15C55"/>
		<stop  offset="1" style="stop-color:#EF2B2D"/>
	</linearGradient>
	<path class="st7" d="M246.81,594.54c-11.9-20.78-27.19-52.81-34.56-93.96c-7.92-44.24,1.92-51,2.16-125.28
		c0.27-81.97-11.61-107.01,2.37-164.91c5.33-22.08,12.16-39.59,17.1-50.93c-9.11-2.09-22.53-4.28-38.79-3.63
		c-11,0.43-27.61,1.25-46.15,9.7c0,0-19.75,8.62-34.4,25.33c-30.91,35.24-0.49,103.65,2.67,198.49
		c3.36,100.66-27.82,131.8-1.22,167.98C142.74,593.71,200.25,597.56,246.81,594.54z"/>
</g>
<g>
	<linearGradient id="SVGID_7_" gradientUnits="userSpaceOnUse" x1="1144.2" y1="375.5349" x2="1660.2" y2="375.5349">
		<stop  offset="0" style="stop-color:#EDF5F8"/>
		<stop  offset="1" style="stop-color:#CCCACD"/>
	</linearGradient>
	<path class="st8" d="M1660.2,167.8c0-55.67-40.6-100.79-90.67-100.79h-42.07c-29.71,0-55.79-11.78-70.58-29.52
		c-0.17,0.09-0.34,0.18-0.51,0.27c-10.85-13.06-31.05-21.83-54.18-21.83c-23.48,0-43.94,9.04-54.67,22.43
		c-0.09-0.06-0.17-0.12-0.26-0.18c-13.36,15.58-35.5,26.42-61.1,28.47c0.02,0.12,0.04,0.24,0.07,0.36h-51.37
		c-50.07,0-90.67,45.13-90.67,100.79v16.88c11.47,50.4,18.56,119.76,18.56,196.33s-7.09,145.93-18.56,196.33v16.87
		c0,55.67,40.6,100.79,90.67,100.79h13.8c2.07-0.35,4.25-0.7,6.53-1.03v34.65c0,3.41,8.52,6.15,19.01,6.15
		c10.49,0,18.99-2.74,18.99-6.15v-39.19c24.76-1.92,54.56-3.22,87-3.61v42.5c0,3.63,9.85,6.6,22,6.6s22-2.97,22-6.6v-42.51
		c31.58,0.39,60.64,1.62,85,3.46v40.56c0,2.92,9.63,5.28,21.49,5.28c11.88,0,21.51-2.36,21.51-5.28V694.4
		c1.3,0.2,2.57,0.4,3.79,0.61h13.54c50.07,0,90.67-45.13,90.67-100.79v-20.55c-10.99-50.08-17.74-117.93-17.74-192.65
		c0-74.73,6.75-142.59,17.74-192.65V167.8z M1402.44,44.23c17.44,0,31.56,14.13,31.56,31.56s-14.12,31.56-31.56,31.56
		c-17.43,0-31.56-14.13-31.56-31.56S1385.01,44.23,1402.44,44.23z"/>
	<path class="st1" d="M1604.48,187.73c-9.31,46.77-15.25,117.82-15.25,197.38c0,44.25,1.84,85.86,5.07,122.12
		c-2.39,0.63-4.78,1.23-7.17,1.8c-84.35,20.36-168.65,9.67-237.6-1.25c-40.38-6.41-75.49-12.89-102.27-13.27
		c-14.42-0.21-26.43,1.36-35.53,5.66c-3.52,1.65-6.6,3.71-9.22,6.24c0.88-9.25,1.67-18.86,2.36-28.8c0.15-2.17,0.29-4.36,0.44-6.57
		c0.07-1.12,0.14-2.25,0.21-3.38c0.12-2.09,0.25-4.19,0.37-6.31c0.08-1.27,0.15-2.54,0.21-3.82c0.06-1.14,0.12-2.28,0.18-3.43
		c0.18-3.48,0.34-6.99,0.5-10.53c0.07-1.83,0.15-3.66,0.22-5.51c0.08-1.81,0.14-3.63,0.21-5.44c0.03-1.01,0.07-2.03,0.1-3.04
		c0.12-3.58,0.23-7.18,0.32-10.8c0.03-1.21,0.06-2.42,0.09-3.63c0.03-1.21,0.06-2.43,0.08-3.65c0.03-1.22,0.06-2.44,0.08-3.67
		c0.01-0.32,0.01-0.65,0.02-0.98c0.04-2.11,0.07-4.25,0.1-6.39c0.11-7.36,0.16-14.81,0.16-22.33c0-7.58-0.05-15.08-0.16-22.49
		c-0.03-2.14-0.06-4.27-0.1-6.39c-0.01-0.33-0.02-0.65-0.02-0.98c-0.02-1.23-0.05-2.45-0.08-3.67c-0.02-1.22-0.05-2.43-0.08-3.65
		c-0.02-1.21-0.05-2.42-0.09-3.63c-0.09-3.63-0.2-7.23-0.32-10.8c-0.03-1.02-0.07-2.02-0.1-3.03c-0.07-1.83-0.14-3.64-0.21-5.45
		c-0.07-1.84-0.14-3.68-0.22-5.51c-0.16-3.55-0.33-7.06-0.5-10.53c-0.06-1.14-0.11-2.29-0.18-3.43c-0.07-1.27-0.14-2.55-0.21-3.82
		c-0.11-2.12-0.24-4.22-0.37-6.31c-0.07-1.14-0.14-2.26-0.21-3.38c-0.14-2.21-0.28-4.4-0.44-6.57c-2.53-36.74-6.44-69.07-11.31-94.6
		c-0.35-1.84-0.7-3.64-1.06-5.4c-0.01-0.04-0.01-0.07-0.02-0.11c-0.2-7.14,4.15-13.99,12.28-20.31
		c28.32-19.25,102.57-32.97,189.72-32.97c86.81,0,160.83,13.62,189.4,32.75c0.03,0.02,0.06,0.04,0.09,0.06
		c2.56,1.97,4.76,3.99,6.56,6.05c8.47,5.36,13.35,11.16,13.89,17.24c0.04,0.38,0.06,0.77,0.06,1.15V187.73z"/>
	<path class="st2" d="M1596.2,575.92v5.38c0,0.38-0.02,0.77-0.06,1.15c-0.51,5.72-4.86,11.19-12.43,16.28
		c-0.04,0.04-0.07,0.07-0.11,0.08c-28.56,19.12-102.59,32.75-189.39,32.75c-86.06,0-159.56-13.39-188.64-32.26
		c-0.37-0.23-0.73-0.47-1.08-0.71c-7.44-5.05-11.72-10.48-12.23-16.14c-0.04-0.38-0.06-0.77-0.06-1.15v-3.21
		c4.02-19.65,7.43-43.77,10.04-71.13c2.62-2.52,5.7-4.58,9.21-6.23c9.11-4.3,21.12-5.87,35.53-5.66
		c26.78,0.38,61.89,6.86,102.27,13.27c68.95,10.92,153.25,21.61,237.6,1.25C1589.33,534.88,1592.5,557.32,1596.2,575.92z"/>
	<linearGradient id="SVGID_8_" gradientUnits="userSpaceOnUse" x1="1402.2013" y1="730.34" x2="1402.2013" y2="495.0516">
		<stop  offset="0" style="stop-color:#EA1B23"/>
		<stop  offset="1" style="stop-color:#C9141D"/>
	</linearGradient>
	<path class="st9" d="M1604.2,583.07v2.61c0,11.73-12.24,22.63-33.28,31.76c-0.01,0.01-0.02,0.02-0.04,0.02
		c-0.01,0.01-0.02,0.01-0.04,0.02c-0.01,0-0.01,0.01-0.02,0.01c-1.78,0.52-3.51,1.23-5.16,2.12c-0.01,0-0.02,0.01-0.03,0.01
		c-11.43,6.09-19.43,20.02-19.43,36.23v70.38c0,2.17-6.94,3.94-15.5,3.94c-8.56,0-15.5-1.77-15.5-3.94v-68.22h-0.01
		c-0.2-11.61-9.28-20.96-20.47-21h-1.2c-0.76,0-1.5,0.04-2.24,0.11c-1.22,0.12-2.42,0.33-3.57,0.63
		c-16.78,2.04-34.82,3.49-53.72,4.26h-0.12c0,0-0.24,0.73-0.36,0.74c-0.35,0-0.7,0.02-1.05,0.06c-0.04,0-0.09,0-0.14,0.01
		c-7.51,0.76-13.4,7.02-13.57,15.19h-0.55v67.47c0.54,2.68-6.69,4.86-15.61,4.86c-8.92,0-16.15-2.18-16.39-4.86v-68.32
		c-0.04,0-0.11-0.01-0.18-0.02c-0.36-7.58-6.29-13.7-13.79-14.34c-0.05-0.01-0.1-0.01-0.15-0.01c-0.39-0.04-1.17-0.78-1.17-0.78
		h-2.01c-19.66-0.89-38.36-2.62-55.65-5.07c0,0.07-0.01,0.13-0.03,0.19c-1.34-0.28-2.72-0.42-4.14-0.42
		c-11.06,0-20.12,8.76-20.83,19.83c-0.02-0.01-0.04-0.02-0.05-0.04v67.29c0,2.52-6.27,4.56-14,4.56s-14-2.04-14-4.56v-67.31
		c-0.16-16.57-8.71-30.68-20.7-36.29c-0.37-0.18-0.75-0.34-1.12-0.5c-0.66-0.27-1.32-0.52-2-0.74
		c-14.31-5.85-24.9-12.49-30.81-19.65c-3.64-4.41-5.5-9.02-5.36-13.76c0-0.03,0.01-0.07,0.01-0.11c0.36-1.76,0.71-3.56,1.06-5.4
		c4.19-21.93,7.66-48.87,10.17-79.3c9.11-4.3,21.12-5.87,35.53-5.66c26.78,0.38,61.89,6.86,102.27,13.27
		c68.95,10.92,153.25,21.61,237.6,1.25c2.39-0.57,4.79-1.17,7.18-1.8C1596.6,536.75,1600.06,562.3,1604.2,583.07z"/>
	<linearGradient id="SVGID_9_" gradientUnits="userSpaceOnUse" x1="1252.7194" y1="489.3307" x2="1375.4043" y2="612.0156">
		<stop  offset="0" style="stop-color:#F15C55"/>
		<stop  offset="1" style="stop-color:#EF2B2D"/>
	</linearGradient>
	<path class="st10" d="M1384.01,603.41c-46.56,3.01-104.07-0.83-130.82-37.22c-15.22-20.7-11.52-39.76-6.21-71.12
		c26.78,0.38,61.89,6.86,102.27,13.27c0.07,0.37,0.13,0.74,0.2,1.11C1356.82,550.59,1372.11,582.62,1384.01,603.41z"/>
</g>
<path class="st1" d="M469.96,275.77c-0.08,0.07-0.16,0.15-0.24,0.23"/>
<path class="st1" d="M852.41,276c-0.15,0.04-0.29,0.08-0.44,0.12"/>
<path class="st11" d="M1073.45,414.81c-0.18,0.16-0.35,0.33-0.52,0.5"/>
<path class="st11" d="M1466.46,415.31c-0.41,0.11-0.81,0.22-1.22,0.32"/>
</svg>
