<?xml version="1.0" encoding="utf-8"?>
<!-- Generator: Adobe Illustrator 24.1.2, SVG Export Plug-In . SVG Version: 6.00 Build 0)  -->
<svg version="1.1" id="Camada_1" xmlns="http://www.w3.org/2000/svg" xmlns:xlink="http://www.w3.org/1999/xlink" x="0px" y="0px"
	 viewBox="0 0 892.49 1280" style="enable-background:new 0 0 892.49 1280;" xml:space="preserve">
<style type="text/css">
	.st0{fill:url(#SVGID_1_);stroke:#C7C7C9;stroke-width:10;stroke-miterlimit:10;}
	.st1{fill:#EB8998;}
	.st2{fill:url(#SVGID_2_);}
	.st3{fill:url(#SVGID_3_);}
</style>
<g>
	<linearGradient id="SVGID_1_" gradientUnits="userSpaceOnUse" x1="9" y1="630.1862" x2="886.2" y2="630.1862">
		<stop  offset="0" style="stop-color:#EDF5F8"/>
		<stop  offset="1" style="stop-color:#CCCACD"/>
	</linearGradient>
	<path class="st0" d="M886.2,277.05c0-94.63-69.02-171.35-154.14-171.35h-71.51c-50.51,0-94.84-20.02-119.99-50.18
		c-0.29,0.15-0.58,0.31-0.87,0.46c-18.45-22.2-52.79-37.11-92.11-37.11c-39.91,0-74.69,15.37-92.94,38.13
		c-0.15-0.1-0.29-0.2-0.44-0.31c-22.72,26.48-60.35,44.91-103.86,48.4c0.03,0.2,0.07,0.41,0.12,0.61h-87.33
		C78.02,105.7,9,182.41,9,277.05v28.69c19.51,85.67,31.55,203.59,31.55,333.77S28.51,887.59,9,973.28v28.68
		c0,94.63,69.02,171.35,154.14,171.35h23.46c3.51-0.6,7.22-1.19,11.11-1.75v58.91c0,5.8,14.48,10.45,32.31,10.45
		s32.29-4.66,32.29-10.45v-66.63c42.09-3.27,92.74-5.47,147.9-6.13v72.26c0,6.18,16.74,11.22,37.4,11.22
		c20.66,0,37.4-5.04,37.4-11.22v-72.26c53.68,0.66,103.09,2.75,144.5,5.89v68.95c0,4.96,16.36,8.98,36.53,8.98
		c20.2,0,36.57-4.01,36.57-8.98v-60.27c2.21,0.34,4.36,0.68,6.44,1.04h23.02c85.12,0,154.14-76.71,154.14-171.35v-34.93
		c-18.69-85.13-30.16-200.48-30.16-327.51c0-127.05,11.47-242.4,30.16-327.51V277.05z M448.01,66.96
		c29.65,0,53.65,24.02,53.65,53.65s-24,53.65-53.65,53.65c-29.63,0-53.65-24.02-53.65-53.65S418.38,66.96,448.01,66.96z"/>
	<path class="st1" d="M752.69,555.14c-0.78,26.05-1.21,52.92-1.21,80.4c0,31.71,0.56,62.6,1.61,92.38
		c3.45,97.12,12.2,182.1,24.3,242.92v9.14c0,0.65-0.03,1.31-0.1,1.95c-0.87,9.72-8.26,19.03-21.12,27.68
		c-0.07,0.07-0.12,0.12-0.19,0.14c-48.57,32.51-174.41,55.67-321.98,55.67c-148.15,0-274.38-23.33-322.52-56.05
		c-12.64-8.58-19.92-17.83-20.78-27.44c-0.07-0.65-0.1-1.31-0.1-1.95v-5.45c9.14-44.68,16.43-102.96,21.07-169.87
		c0.25-3.69,0.49-7.41,0.75-11.16c0.12-1.9,0.24-3.82,0.36-5.74c0.2-3.55,0.42-7.12,0.63-10.72c0.14-2.16,0.25-4.33,0.36-6.51
		c0.1-1.94,0.2-3.87,0.31-5.83c0.31-5.91,0.58-11.88,0.85-17.89c0.12-3.11,0.25-6.22,0.37-9.36c0.14-3.08,0.24-6.17,0.36-9.26
		c0.05-1.72,0.12-3.45,0.17-5.17c0.2-6.08,0.39-12.2,0.54-18.35c0.05-2.06,0.1-4.11,0.15-6.17c0.05-2.06,0.1-4.13,0.14-6.2
		c0.05-2.07,0.1-4.15,0.14-6.24c0.02-0.54,0.02-1.1,0.03-1.67c0.07-3.6,0.12-7.24,0.17-10.88c0.19-12.51,0.27-25.17,0.27-37.96
		c0-12.88-0.08-25.63-0.27-38.22c-0.05-3.64-0.1-7.27-0.17-10.88c-0.02-0.56-0.03-1.1-0.03-1.67c-0.03-2.09-0.08-4.16-0.14-6.24
		c-0.03-2.07-0.08-4.13-0.14-6.2c-0.03-2.06-0.09-4.11-0.15-6.17c-0.15-6.17-0.34-12.29-0.54-18.35c-0.05-1.73-0.12-3.45-0.17-5.17
		c-0.12-3.11-0.24-6.19-0.36-9.26c-0.12-3.13-0.24-6.25-0.37-9.36c-0.27-6.03-0.56-12-0.85-17.89c-0.1-1.94-0.19-3.89-0.31-5.83
		c-0.12-2.18-0.24-4.35-0.36-6.51c-0.19-3.6-0.41-7.17-0.63-10.72c-0.12-1.94-0.24-3.84-0.36-5.74c-0.24-3.76-0.48-7.48-0.75-11.16
		c-4.3-62.47-10.94-117.43-19.24-160.83c-0.59-3.13-1.19-6.19-1.8-9.18c-0.01-0.06-0.01-0.12-0.02-0.19
		c-0.35-12.15,7.05-23.78,20.87-34.53c48.14-32.71,174.37-56.05,322.52-56.05c147.57,0,273.41,23.16,321.98,55.67
		c0.05,0.04,0.1,0.07,0.15,0.11c13.76,10.56,21.26,22.01,21.26,33.97v4.57C764.77,363.13,755.8,452.8,752.69,555.14z"/>
	<linearGradient id="SVGID_2_" gradientUnits="userSpaceOnUse" x1="447.6" y1="1233.3596" x2="447.6" y2="217.2759">
		<stop  offset="0" style="stop-color:#EA1B23"/>
		<stop  offset="1" style="stop-color:#C9141D"/>
	</linearGradient>
	<path class="st2" d="M791,311.86c-15.82,79.51-25.92,200.3-25.92,335.56c0,135.27,10.09,256.06,25.92,335.57v4.44
		c0,19.95-20.8,38.48-56.57,53.99c-0.02,0.02-0.03,0.03-0.07,0.03c-0.02,0.02-0.03,0.02-0.07,0.03c-0.02,0-0.02,0.02-0.03,0.02
		c-3.04,0.89-5.98,2.1-8.78,3.6c-0.02,0-0.03,0.02-0.05,0.02c-19.44,10.35-33.03,34.04-33.03,61.59v119.64c0,3.7-11.8,6.7-26.36,6.7
		c-14.54,0-26.34-3-26.34-6.7V1110.4h-0.02c-0.35-19.74-15.78-35.63-34.8-35.7h-2.05c-1.29,0-2.55,0.06-3.81,0.19
		c-2.07,0.2-4.11,0.56-6.07,1.07c-28.53,3.46-59.19,5.93-91.32,7.24h-0.2c0,0-0.41,1.24-0.61,1.26c-0.6,0-1.19,0.03-1.79,0.1
		c-0.07,0-0.15,0-0.24,0.02c-12.77,1.29-22.78,11.93-23.07,25.82h-0.93v114.7c0.91,4.56-11.38,8.26-26.54,8.26
		c-15.16,0-27.46-3.71-27.86-8.26v-116.14c0.16,0-0.07,0-0.31-0.03c-0.61-12.89-10.69-23.29-23.44-24.38
		c-0.09-0.02-0.17-0.02-0.26-0.02c-0.66-0.07-1.99-1.33-1.99-1.33h-3.42c-33.41-1.51-65.2-4.45-94.6-8.62
		c0,0.12-0.02,0.22-0.05,0.32c-2.27-0.48-4.63-0.71-7.04-0.71c-18.8,0-34.21,14.89-35.42,33.71c-0.03-0.02-0.07-0.03-0.08-0.07
		v114.39c0,4.28-10.66,7.75-23.8,7.75c-13.14,0-23.8-3.47-23.8-7.75v-114.44c-0.27-28.17-14.81-52.15-35.2-61.68
		c-0.63-0.31-1.26-0.58-1.89-0.85c-1.12-0.46-2.25-0.89-3.4-1.26c-39.31-16.07-62.12-35.66-61.5-56.8c0.01-0.06,0.01-0.12,0.02-0.18
		c0.61-3,1.21-6.06,1.8-9.19c15.22-79.64,24.87-198.14,24.87-330.46c0-137.59-10.43-260.22-26.7-339.77v-4.88
		c0-0.65,0.03-1.31,0.1-1.95c4.16-46.29,156.26-83.49,343.31-83.49c187.03,0,339.13,37.2,343.29,83.49c0.07,0.65,0.1,1.31,0.1,1.95
		V311.86z"/>
	<linearGradient id="SVGID_3_" gradientUnits="userSpaceOnUse" x1="100.0432" y1="422.6254" x2="555.8315" y2="878.4137">
		<stop  offset="0" style="stop-color:#F15C55"/>
		<stop  offset="1" style="stop-color:#EF2B2D"/>
	</linearGradient>
	<path class="st3" d="M416.68,1017.57c-20.23-35.33-46.23-89.78-58.75-159.73c-13.47-75.21,3.26-86.71,3.67-212.98
		c0.46-139.34-19.73-181.91,4.03-280.35c9.06-37.53,20.67-67.3,29.06-86.58c-15.49-3.56-38.31-7.27-65.95-6.18
		c-18.7,0.74-46.93,2.12-78.45,16.48c0,0-33.58,14.66-58.48,43.05c-52.54,59.91-0.84,176.21,4.55,337.44
		c5.71,171.12-47.3,224.05-2.07,285.57C239.77,1016.16,337.52,1022.7,416.68,1017.57z"/>
</g>
</svg>
