<?xml version="1.0" encoding="utf-8"?>
<!-- Generator: Adobe Illustrator 24.1.2, SVG Export Plug-In . SVG Version: 6.00 Build 0)  -->
<svg version="1.1" id="Camada_1" xmlns="http://www.w3.org/2000/svg" xmlns:xlink="http://www.w3.org/1999/xlink" x="0px" y="0px"
	 viewBox="0 0 528.8 731.96" style="enable-background:new 0 0 528.8 731.96;" xml:space="preserve">
<style type="text/css">
	.st0{fill:url(#SVGID_1_);stroke:#C7C7C9;stroke-width:10;stroke-miterlimit:10;}
	.st1{fill:#FFFFFF;}
	.st2{fill:#EB8998;}
	.st3{fill:url(#SVGID_2_);}
	.st4{fill:url(#SVGID_3_);}
	.st5{fill:none;stroke:#000000;stroke-miterlimit:10;}
</style>
<g>
	
		<linearGradient id="SVGID_1_" gradientUnits="userSpaceOnUse" x1="6.9949" y1="714.3291" x2="523.0051" y2="714.3291" gradientTransform="matrix(1 0 0 -1 0 1082)">
		<stop  offset="0" style="stop-color:#EDF5F8"/>
		<stop  offset="1" style="stop-color:#CCCACD"/>
	</linearGradient>
	<path class="st0" d="M523.01,159.95c0-55.67-40.6-100.79-90.67-100.79h-42.07c-29.71,0-55.79-11.78-70.58-29.52
		c-0.17,0.09-0.34,0.18-0.51,0.27C308.33,16.85,288.13,8.08,265,8.08c-23.48,0-43.94,9.04-54.67,22.43
		c-0.09-0.06-0.17-0.12-0.26-0.18c-13.36,15.58-35.5,26.42-61.1,28.47c0.02,0.12,0.04,0.24,0.07,0.36H97.66
		c-50.07,0-90.67,45.13-90.67,100.79v16.88c11.47,50.4,18.56,119.76,18.56,196.33S18.47,519.09,6.99,569.49v16.87
		c0,55.67,40.6,100.79,90.67,100.79h13.8c2.07-0.35,4.25-0.7,6.53-1.03v34.65c0,3.41,8.52,6.15,19.01,6.15s18.99-2.74,18.99-6.15
		v-39.19c24.76-1.92,54.56-3.22,87-3.61v42.5c0,3.63,9.85,6.6,22,6.6s22-2.97,22-6.6v-42.51c31.58,0.39,60.64,1.62,85,3.46v40.56
		c0,2.92,9.63,5.28,21.49,5.28c11.88,0,21.51-2.36,21.51-5.28v-35.43c1.3,0.2,2.57,0.4,3.79,0.61h13.54
		c50.07,0,90.67-45.13,90.67-100.79v-20.55c-10.99-50.08-17.74-117.93-17.74-192.65c0-74.73,6.75-142.59,17.74-192.65L523.01,159.95
		L523.01,159.95z M265.25,36.38c17.44,0,31.56,14.13,31.56,31.56S282.69,99.5,265.25,99.5c-17.43,0-31.56-14.13-31.56-31.56
		S247.82,36.38,265.25,36.38z"/>
	<path class="st1" d="M467.29,179.88c-9.31,46.77-15.25,117.82-15.25,197.38c0,44.25,1.84,85.86,5.07,122.12
		c-2.39,0.63-4.78,1.23-7.17,1.8c-84.35,20.36-168.65,9.67-237.6-1.25c-40.38-6.41-75.49-12.89-102.27-13.27
		c-14.42-0.21-26.43,1.36-35.53,5.66c-3.52,1.65-6.6,3.71-9.22,6.24c0.88-9.25,1.67-18.86,2.36-28.8c0.15-2.17,0.29-4.36,0.44-6.57
		c0.07-1.12,0.14-2.25,0.21-3.38c0.12-2.09,0.25-4.19,0.37-6.31c0.08-1.27,0.15-2.54,0.21-3.82c0.06-1.14,0.12-2.28,0.18-3.43
		c0.18-3.48,0.34-6.99,0.5-10.53c0.07-1.83,0.15-3.66,0.22-5.51c0.08-1.81,0.14-3.63,0.21-5.44c0.03-1.01,0.07-2.03,0.1-3.04
		c0.12-3.58,0.23-7.18,0.32-10.8c0.03-1.21,0.06-2.42,0.09-3.63c0.03-1.21,0.06-2.43,0.08-3.65c0.03-1.22,0.06-2.44,0.08-3.67
		c0.01-0.32,0.01-0.65,0.02-0.98c0.04-2.11,0.07-4.25,0.1-6.39c0.11-7.36,0.16-14.81,0.16-22.33c0-7.58-0.05-15.08-0.16-22.49
		c-0.03-2.14-0.06-4.27-0.1-6.39c-0.01-0.33-0.02-0.65-0.02-0.98c-0.02-1.23-0.05-2.45-0.08-3.67c-0.02-1.22-0.05-2.43-0.08-3.65
		c-0.02-1.21-0.05-2.42-0.09-3.63c-0.09-3.63-0.2-7.23-0.32-10.8c-0.03-1.02-0.07-2.02-0.1-3.03c-0.07-1.83-0.14-3.64-0.21-5.45
		c-0.07-1.84-0.14-3.68-0.22-5.51c-0.16-3.55-0.33-7.06-0.5-10.53c-0.06-1.14-0.11-2.29-0.18-3.43c-0.07-1.27-0.14-2.55-0.21-3.82
		c-0.11-2.12-0.24-4.22-0.37-6.31c-0.07-1.14-0.14-2.26-0.21-3.38c-0.14-2.21-0.28-4.4-0.44-6.57c-2.53-36.74-6.44-69.07-11.31-94.6
		c-0.35-1.84-0.7-3.64-1.06-5.4c-0.01-0.04-0.01-0.07-0.02-0.11c-0.2-7.14,4.15-13.99,12.28-20.31
		c28.32-19.25,102.57-32.97,189.72-32.97c86.81,0,160.83,13.62,189.4,32.75c0.03,0.02,0.06,0.04,0.09,0.06
		c2.56,1.97,4.76,3.99,6.56,6.05c8.47,5.36,13.35,11.16,13.89,17.24c0.04,0.38,0.06,0.77,0.06,1.15L467.29,179.88L467.29,179.88z"/>
	<path class="st2" d="M459.01,568.07v5.38c0,0.38-0.02,0.77-0.06,1.15c-0.51,5.72-4.86,11.19-12.43,16.28
		c-0.04,0.04-0.07,0.07-0.11,0.08c-28.56,19.12-102.59,32.75-189.39,32.75c-86.06,0-159.56-13.39-188.64-32.26
		c-0.37-0.23-0.73-0.47-1.08-0.71c-7.44-5.05-11.72-10.48-12.23-16.14c-0.04-0.38-0.06-0.77-0.06-1.15v-3.21
		c4.02-19.65,7.43-43.77,10.04-71.13c2.62-2.52,5.7-4.58,9.21-6.23c9.11-4.3,21.12-5.87,35.53-5.66
		c26.78,0.38,61.89,6.86,102.27,13.27c68.95,10.92,153.25,21.61,237.6,1.25C452.14,527.03,455.31,549.47,459.01,568.07z"/>
	
		<linearGradient id="SVGID_2_" gradientUnits="userSpaceOnUse" x1="265.0062" y1="359.5092" x2="265.0062" y2="594.7976" gradientTransform="matrix(1 0 0 -1 0 1082)">
		<stop  offset="0" style="stop-color:#EA1B23"/>
		<stop  offset="1" style="stop-color:#C9141D"/>
	</linearGradient>
	<path class="st3" d="M467.01,575.22v2.61c0,11.73-12.24,22.63-33.28,31.76c-0.01,0.01-0.02,0.02-0.04,0.02
		c-0.01,0.01-0.02,0.01-0.04,0.02c-0.01,0-0.01,0.01-0.02,0.01c-1.78,0.52-3.51,1.23-5.16,2.12c-0.01,0-0.02,0.01-0.03,0.01
		C417,617.86,409,631.79,409,648v70.38c0,2.17-6.94,3.94-15.5,3.94s-15.5-1.77-15.5-3.94v-68.22h-0.01
		c-0.2-11.61-9.28-20.96-20.47-21h-1.2c-0.76,0-1.5,0.04-2.24,0.11c-1.22,0.12-2.42,0.33-3.57,0.63
		c-16.78,2.04-34.82,3.49-53.72,4.26h-0.12c0,0-0.24,0.73-0.36,0.74c-0.35,0-0.7,0.02-1.05,0.06c-0.04,0-0.09,0-0.14,0.01
		c-7.51,0.76-13.4,7.02-13.57,15.19H281v67.47c0.54,2.68-6.69,4.86-15.61,4.86s-16.15-2.18-16.39-4.86v-68.32
		c-0.04,0-0.11-0.01-0.18-0.02c-0.36-7.58-6.29-13.7-13.79-14.34c-0.05-0.01-0.1-0.01-0.15-0.01c-0.39-0.04-1.17-0.78-1.17-0.78
		h-2.01c-19.66-0.89-38.36-2.62-55.65-5.07c0,0.07-0.01,0.13-0.03,0.19c-1.34-0.28-2.72-0.42-4.14-0.42
		c-11.06,0-20.12,8.76-20.83,19.83c-0.02-0.01-0.04-0.02-0.05-0.04v67.29c0,2.52-6.27,4.56-14,4.56s-14-2.04-14-4.56v-67.31
		c-0.16-16.57-8.71-30.68-20.7-36.29c-0.37-0.18-0.75-0.34-1.12-0.5c-0.66-0.27-1.32-0.52-2-0.74
		c-14.31-5.85-24.9-12.49-30.81-19.65c-3.64-4.41-5.5-9.02-5.36-13.76c0-0.03,0.01-0.07,0.01-0.11c0.36-1.76,0.71-3.56,1.06-5.4
		c4.19-21.93,7.66-48.87,10.17-79.3c9.11-4.3,21.12-5.87,35.53-5.66c26.78,0.38,61.89,6.86,102.27,13.27
		c68.95,10.92,153.25,21.61,237.6,1.25c2.39-0.57,4.79-1.17,7.18-1.8C459.41,528.9,462.87,554.45,467.01,575.22z"/>
	
		<linearGradient id="SVGID_3_" gradientUnits="userSpaceOnUse" x1="115.5244" y1="600.5186" x2="238.2095" y2="477.8335" gradientTransform="matrix(1 0 0 -1 0 1082)">
		<stop  offset="0" style="stop-color:#F15C55"/>
		<stop  offset="1" style="stop-color:#EF2B2D"/>
	</linearGradient>
	<path class="st4" d="M246.82,595.56c-46.56,3.01-104.07-0.83-130.82-37.22c-15.22-20.7-11.52-39.76-6.21-71.12
		c26.78,0.38,61.89,6.86,102.27,13.27c0.07,0.37,0.13,0.74,0.2,1.11C219.63,542.74,234.92,574.77,246.82,595.56z"/>
</g>
<path class="st5" d="M1611.41,168.18c0.01,0.01,0.01,0.02,0,0.02h-1.81C1610.2,168.2,1610.81,168.2,1611.41,168.18z"/>
<path class="st5" d="M1437.1,702.91c0.05,0,0.1,0,0.15,0.01h-0.16c-0.39-0.02-0.77-0.04-1.16-0.06
	C1436.32,702.86,1436.71,702.87,1437.1,702.91z"/>
<path class="st5" d="M1498.96,702.86c-0.13,0.01-0.28,0.02-0.42,0.03c-0.35,0.01-0.7,0.02-1.06,0.04c0.35-0.04,0.7-0.06,1.05-0.06
	c0.12-0.01,0.24-0.01,0.36-0.01H1498.96z"/>
<path class="st5" d="M1265.39,645.44c0.01-0.03,0.01-0.05,0.02-0.08c-0.02,0.2-0.02,0.4-0.02,0.6V645.44z"/>
<path class="st5" d="M1265.39,241.81h0.06c-0.04,0.38-0.06,0.77-0.06,1.15V241.81z"/>
<path class="st5" d="M1669.54,241.81v1.15c0-0.38-0.02-0.77-0.06-1.15H1669.54z"/>
<path class="st5" d="M1304.64,680.08c-0.38-0.15-0.76-0.29-1.13-0.44c-0.67-0.27-1.33-0.53-1.98-0.8c0.68,0.22,1.34,0.47,2,0.74
	C1303.9,679.74,1304.27,679.9,1304.64,680.08z"/>
<path class="st5" d="M1558.61,697.38c-0.76,0.11-1.53,0.22-2.3,0.33c-1.18,0.16-2.38,0.33-3.58,0.48c1.15-0.33,2.35-0.56,3.57-0.69
	c0.74-0.08,1.48-0.12,2.24-0.12H1558.61z"/>
<path class="st5" d="M1636.32,677.62c-1.66,0.72-3.37,1.42-5.14,2.11C1632.82,678.85,1634.54,678.14,1636.32,677.62z"/>
<path class="st5" d="M1437.25,702.92h-0.16c-0.39-0.02-0.77-0.04-1.16-0.06c0.39,0,0.78,0.01,1.17,0.05
	C1437.15,702.91,1437.2,702.91,1437.25,702.92z"/>
<path class="st5" d="M1498.96,702.86c-0.13,0.01-0.28,0.02-0.42,0.03c-0.35,0.01-0.7,0.02-1.06,0.04c0.35-0.04,0.7-0.06,1.05-0.06
	c0.12-0.01,0.24-0.01,0.36-0.01H1498.96z"/>
<path class="st5" d="M1304.64,680.08c-0.38-0.15-0.76-0.29-1.13-0.44c-0.67-0.27-1.33-0.53-1.98-0.8c0.68,0.22,1.34,0.47,2,0.74
	C1303.9,679.74,1304.27,679.9,1304.64,680.08z"/>
<path class="st5" d="M1558.54,697.38h0.07c-0.76,0.11-1.53,0.22-2.3,0.33c-1.18,0.16-2.38,0.33-3.58,0.48
	c1.15-0.33,2.35-0.56,3.57-0.69C1557.04,697.42,1557.78,697.38,1558.54,697.38z"/>
<path class="st5" d="M1636.32,677.62c-1.66,0.72-3.37,1.42-5.14,2.11C1632.82,678.85,1634.54,678.14,1636.32,677.62z"/>
<path class="st5" d="M1266.47,639.96c-0.35,1.84-0.7,3.64-1.06,5.4C1265.47,643.54,1265.83,641.74,1266.47,639.96z"/>
<path class="st5" d="M1498.54,702.89c-0.35,0.01-0.7,0.02-1.06,0.04c0.35-0.04,0.7-0.06,1.05-0.06
	C1498.53,702.88,1498.54,702.88,1498.54,702.89z"/>
<path class="st5" d="M1437.25,702.92h-0.16c0-0.01,0.01-0.01,0.01-0.01C1437.15,702.91,1437.2,702.91,1437.25,702.92z"/>
<path class="st5" d="M1611.81,715.8c0,0.48,0.01,0.95,0.02,1.42c-0.01-0.01-0.02-0.01-0.02-0.02V715.8z"/>
<path class="st5" d="M1631.18,679.73c1.64-0.88,3.36-1.59,5.14-2.11C1634.66,678.34,1632.95,679.04,1631.18,679.73z"/>
<path class="st5" d="M1636.43,677.58c-0.01,0-0.03,0.01-0.05,0.01c0.02,0,0.03-0.01,0.04-0.02
	C1636.42,677.57,1636.42,677.57,1636.43,677.58z"/>
<path class="st5" d="M1558.61,697.38c-0.76,0.11-1.53,0.22-2.3,0.33c-0.01-0.07-0.02-0.14-0.01-0.21c0.74-0.08,1.48-0.12,2.24-0.12
	H1558.61z"/>
<path class="st5" d="M1304.64,680.08c-0.38-0.15-0.76-0.29-1.13-0.44c0-0.02,0.01-0.04,0.02-0.06
	C1303.9,679.74,1304.27,679.9,1304.64,680.08z"/>
<path class="st5" d="M1409,505.16"/>
</svg>
