<?xml version="1.0" encoding="utf-8"?>
<!-- Generator: Adobe Illustrator 24.1.2, SVG Export Plug-In . SVG Version: 6.00 Build 0)  -->
<svg version="1.1" id="Layer_1" xmlns="http://www.w3.org/2000/svg" xmlns:xlink="http://www.w3.org/1999/xlink" x="0px" y="0px"
	 viewBox="0 0 512 512" style="enable-background:new 0 0 512 512;" xml:space="preserve">
<style type="text/css">
	.st0{fill:#FF0000;}
	.st1{fill:#EAEFF2;}
	.st2{fill:#D4D4D8;}
	.st3{fill:#E1E2E5;}
	.st4{fill:#657A8B;}
	.st5{fill:#647989;}
	.st6{fill:#D6D6DB;}
	.st7{fill:#919EAA;}
	.st8{fill:#E1E6E9;}
	.st9{fill:#28A2DA;}
	.st10{fill:#6BC5E6;}
	.st11{fill:#344D5E;}
</style>
<path class="st0" d="M0,237c0.1,0,0.2-0.1,0.2-0.1v38.9c-0.1-0.2-0.1-0.5-0.2-0.7V237z"/>
<path class="st0" d="M283,1.3h-53.2C247.4-0.5,265.2-0.5,283,1.3z"/>
<path class="st0" d="M512.2,120v276.4c0,64.6-52.3,116.9-116.9,116.9H117.1C52.5,513.3,0.2,461,0.2,396.4V118.3
	c0-64.6,52.4-117,117-117h276.3C459.1,1.3,512.2,54.4,512.2,120z"/>
<path class="st1" d="M364,402.8c-19.3,0-38.6,0.1-57.9,0.1c0-28.6-0.1-57.4-0.1-86c0-6.6-0.2-6.8-6.7-6.8c-28.6,0-57.4,0-86,0
	c-7.2,0-7.2,0.1-7.2,7.3c0,28.5-0.1,57-0.1,85.5c-19.3,0-38.6-0.1-57.9-0.1c0-8.8-0.1-17.6-0.1-26.5c0-51.8-0.1-103.6-0.1-155.4
	c0-9.2,0-18.5-0.1-27.7c72.2,0,144.3,0,216.4,0c0,9.2,0,18.5-0.1,27.8c0,3.3-0.1,6.7-0.1,10C364,288.1,364,345.5,364,402.8z
	 M331.1,290.5c1,0.7,1.9,0.6,2.9,0c3.3,0,6.7-0.1,9.9,0.1c3,0.2,4.1-1,4.1-4.1c-0.2-8.2-0.2-16.6,0-24.8c0.1-3.8-1.2-5.2-4.8-4.4
	c-1.1,0-2.1,0-3.2,0c-0.9,0-1.9,0-2.8,0c-3.1,0-6.1,0-9.2,0c-3.2,0-6.3,0.2-9.4-0.1c-3.5-0.3-4.2,1.3-4.2,4.3
	c0.1,8.2,0.2,16.5,0,24.7c-0.1,3.5,1.2,4.8,4.7,4.3c2.9,0.7,5.7,1,8.6-0.2C328.7,290.4,329.9,290.5,331.1,290.5z M189.9,257.3
	c-1.2,0-2.5,0-3.7,0.1c-2.7,0-5.5-0.1-8.2-0.1c-3.3,0-6.7,0.1-9.9-0.1c-3.2-0.2-4,1.2-3.9,4.1c0.2,8.2,0.2,16.6,0,24.8
	c-0.2,4,1.6,4.9,5,4.5c2.7,0.8,5.3,0.7,8,0c1.3,0,2.7,0,4.1,0c0.9,0.7,1.7,0.6,2.7-0.1c3.2,0,6.3-0.1,9.4,0.1
	c3.2,0.2,4.5-0.8,4.5-4.2c-0.2-8.5-0.2-16.9,0-25.4c0.1-3.6-1.6-4.3-4.6-3.7C192.1,257.3,191,257.3,189.9,257.3z M230.8,290.5
	c1,0.6,2,0.5,2.9,0c3.2,0,6.2-0.1,9.4,0.1c3.3,0.2,4.7-0.9,4.7-4.5c-0.2-8.2-0.2-16.5,0-24.7c0.1-3.7-1.3-4.7-4.7-4.1
	c-1.1,0-2.1,0-3.2,0c-1.2,0-2.5,0.1-3.7,0.1c-2.7,0-5.5-0.1-8.2-0.1c-3.2,0-6.3,0.1-9.5-0.1c-3.3-0.2-4.3,1-4.3,4.2
	c0.2,8.2,0.2,16.3,0,24.5c-0.1,3.8,1.2,5.2,4.9,4.7c2.7,0.8,5.4,0.7,8.2,0C228.4,290.5,229.6,290.5,230.8,290.5z M281.5,205.1
	c-5,0-10,0.1-15,0c-3.7-0.1-5.5,1.4-5.5,5.3c0.1,9.8,0.1,19.6,0,29.5c0,3.9,1.9,5.2,5.6,5.2c9.7-0.1,19.3-0.1,29,0
	c3.7,0,5.5-1.4,5.5-5.3c-0.1-9.8-0.1-19.6,0-29.5c0-3.9-1.9-5.3-5.6-5.2C290.8,205.1,286.1,205.1,281.5,205.1z M230.4,245
	c5.2,0,10.3-0.1,15.5,0c3.5,0.1,5.2-1.5,5.2-5.1c-0.1-9.8,0-19.6,0-29.5c0-3.7-1.6-5.5-5.4-5.5c-9.8,0.1-19.6,0.1-29.5,0
	c-3.6,0-5.1,1.7-5.1,5.2c0.1,10,0.1,20,0,30c0,3.3,1.6,4.9,4.8,4.8C220.7,245,225.5,245,230.4,245z M351,225.3c0-5-0.1-10,0-15
	c0.1-3.5-1.4-5.2-5-5.2c-9.7,0.1-19.3,0.1-29,0c-3.6,0-5.1,1.7-5.1,5.2c0.1,10,0.1,20,0,29.9c-0.1,3.7,1.7,4.9,5.2,4.9
	c9.5-0.1,19-0.1,28.5,0c3.7,0,5.5-1.5,5.4-5.3C351,234.9,351,230,351,225.3z M200,225.5c0-5.2,0-10.3,0-15.5c0-3.2-1.3-5-4.7-5
	c-9.8,0-19.6,0-29.5,0c-3.3,0-4.8,1.7-4.8,4.9c0,10.2,0,20.3,0,30.4c0,3.1,1.5,4.6,4.6,4.6c10,0,20,0,30,0c3.2,0,4.5-1.5,4.5-4.6
	C200,235.4,200,230.5,200,225.5z M281.5,293c4.8,0,9.7-0.1,14.5,0c3.7,0.1,5.1-1.4,5.1-5.1c-0.1-9.5-0.1-19,0-28.5
	c0-3.7-1.4-5.5-5.3-5.5c-9.8,0.1-19.6,0.1-29.5,0c-3.9,0-5.2,1.9-5.2,5.6c0.1,9.2,0.1,18.3,0,27.5c0,4.1,1.7,6.2,6,6
	C271.9,293,276.7,293,281.5,293z"/>
<path class="st2" d="M147.9,220.9c0,51.8,0.1,103.6,0.1,155.4c0,8.8,0.1,17.6,0.1,26.5c-12.7,0.1-25.4,0.2-38,0.2
	c-1-1.7-0.7-3.6-0.7-5.3c0-56.8,0.1-113.6-0.1-170.4c0-5,1.7-6.1,6.2-6C126.2,221.3,137,221.9,147.9,220.9z"/>
<path class="st1" d="M312.1,110c0,23.3,0,46.7-0.1,70H200c0-22,0.1-43.9,0-65.8c0-3.4,0.5-5,4.6-5c34.6,0.2,69.2,0.1,103.8,0.1
	C309.6,109.3,310.9,109,312.1,110z"/>
<path class="st3" d="M200,180c37.4,0,74.7,0,112,0c16.4,0,32.8,0,49.2,0.2c2.2,0,5.5-0.8,6.4,1.2c1.5,3.1,0.8,6.8,0.3,10.2
	c-0.3,2-2.5,0.9-3.7,1.4c-72.2,0-144.3,0-216.4,0c-3.8,0.3-4.1-2-4.1-5c0.1-7.9,0-8,7.8-8C167.7,180.1,183.8,180.1,200,180z"/>
<path class="st2" d="M364,402.8c0-57.3,0.1-114.6,0.1-171.9c0-3.3,0.1-6.7,0.1-10c11,0.9,22,0.4,33,0.3c4.7-0.1,5.7,1.6,5.7,6
	c-0.2,56.7-0.2,113.3,0,170c0,4.7-1.4,5.9-5.9,5.8C386,402.6,374.9,402.8,364,402.8z"/>
<path class="st4" d="M300.4,402.9c-15.6,0-31-0.1-46.6-0.1c0-0.2,0-0.4-0.1-0.6c0.1-0.2,0.2-0.2,0.3-0.4c4,0.7,3.8-2.2,3.8-4.7
	c0-27.6-0.1-55.3-0.1-82.9c12.8-0.1,25.6,0,38.5-0.2c3.7-0.1,4.4,1.7,4.4,4.8c-0.1,11.2,0,22.3-0.1,33.5
	C300.7,369.3,300.5,386.1,300.4,402.9z"/>
<path class="st5" d="M212.7,402.9c-0.4,0-0.7,0-1.2,0c-0.1-28.3-0.2-56.6-0.3-85c0-3.2,1.6-3.8,4.3-3.8c12.8,0.1,25.6,0.1,38.5,0.1
	c0,29.2,0,58.4,0.1,87.6c-0.1,0.2-0.2,0.2-0.3,0.4c-9.4-0.1-18.9-0.2-28.3-0.2C221.3,402.2,216.9,401.3,212.7,402.9z"/>
<path class="st6" d="M254.1,314.3c-12.8,0-25.6,0-38.5-0.1c-2.8,0-4.3,0.6-4.3,3.8c0.2,28.3,0.2,56.6,0.3,85c-1.9,0-3.7-0.1-5.7-0.1
	c0-28.5,0.1-57,0.1-85.5c0-7.2,0.1-7.3,7.2-7.3c28.6,0,57.4,0,86,0c6.5,0,6.7,0.2,6.7,6.8c0,28.6,0.1,57.4,0.1,86
	c-1.9,0-3.7,0.1-5.7,0.1c0.1-16.8,0.2-33.6,0.2-50.5c0.1-11.2-0.1-22.3,0.1-33.5c0-3.2-0.6-4.9-4.4-4.8c-12.8,0.2-25.6,0.2-38.5,0.2
	C256.7,314.4,255.3,314.3,254.1,314.3z"/>
<path class="st7" d="M212.7,402.9c4.2-1.6,8.5-0.7,12.8-0.7c9.4-0.1,18.9,0.1,28.3,0.2c0,0.2,0.1,0.4,0.1,0.6
	C240.2,402.9,226.4,402.9,212.7,402.9z"/>
<path class="st8" d="M281.5,205.1c4.7,0,9.3,0.1,14,0c3.7-0.1,5.6,1.3,5.6,5.2c-0.1,9.8-0.1,19.6,0,29.5c0,3.8-1.7,5.3-5.5,5.3
	c-9.7-0.1-19.3-0.1-29,0c-3.7,0-5.6-1.3-5.6-5.2c0.1-9.8,0.1-19.6,0-29.5c0-3.8,1.7-5.4,5.5-5.3
	C271.5,205.1,276.5,205.1,281.5,205.1z M289.9,208.4c-1.2,0-2.4,0-3.7,0c-2.6-0.5-5.2-0.6-7.7,0c-3.2,0-6.3,0.1-9.5-0.1
	c-3.3-0.2-4.8,0.8-4.7,4.4c0.2,8.3,0.2,16.6,0,25c-0.1,3.4,1.4,4.5,4.5,4c2.9,0.2,5.9,1.1,8.7-0.5c1.2,0.2,2.4,0.3,3.6,0.5
	c1,0.4,2,0.4,3.1,0c3.2,0,6.3-0.1,9.4,0.1c3.3,0.2,4.2-1.2,4.2-4.3c-0.2-8.2-0.2-16.6,0-24.8c0.1-3.6-1.2-4.8-4.7-4.2
	C292,208.4,291,208.4,289.9,208.4z"/>
<path class="st8" d="M230.4,245c-4.8,0-9.7,0-14.5,0c-3.3,0-4.9-1.6-4.8-4.8c0-10,0.1-20,0-30c0-3.5,1.5-5.2,5.1-5.2
	c9.8,0.1,19.6,0.1,29.5,0c3.8,0,5.4,1.8,5.4,5.5c0,9.8,0,19.6,0,29.5c0,3.6-1.7,5.2-5.2,5.1C240.7,244.9,235.5,245,230.4,245z
	 M239.8,208.4c-1.2,0-2.4,0-3.7,0c-2.7-0.5-5.6-0.5-8.3,0c-3.2,0-6.3,0.1-9.4-0.1c-3.3-0.2-4.2,1.2-4.2,4.3c0.2,8.2,0.2,16.6,0,24.8
	c-0.1,3.6,1.2,4.8,4.7,4.2c2.7,0.5,5.6,0.5,8.3,0c1.2,0,2.4,0,3.7,0c0.9,0,1.8,0,2.7,0c3.2,0,6.3-0.1,9.5,0.1
	c3.3,0.2,4.8-0.9,4.7-4.5c-0.2-8.3-0.2-16.6,0-25c0.1-3.5-1.5-4.4-4.5-4C242.1,208.4,240.9,208.4,239.8,208.4z"/>
<path class="st8" d="M351,225.3c0,4.8-0.1,9.7,0,14.5c0.1,3.8-1.7,5.4-5.4,5.3c-9.5-0.1-19-0.1-28.5,0c-3.5,0-5.2-1.2-5.2-4.9
	c0.1-10,0.1-20,0-29.9c0-3.5,1.5-5.2,5.1-5.2c9.7,0.1,19.3,0.1,29,0c3.6,0,5.1,1.7,5,5.2C351,215.3,351,220.3,351,225.3z
	 M339.8,208.4c-0.9,0-1.7,0-2.7,0c-2.9-0.5-5.7-0.6-8.7,0c-3.2,0-6.3,0.2-9.4-0.1c-3.4-0.2-4.7,1-4.7,4.5c0.2,8.2,0.2,16.2,0.1,24.4
	c-0.1,3.4,1,5.1,4.6,4.5c2.8,0.3,5.7,1.1,8.5-0.5c1.2,0.2,2.4,0.3,3.6,0.5c1,0.4,2.1,0.4,3.1,0c3.2,0,6.3-0.1,9.5,0.1
	c3.2,0.2,4.3-1.1,4.2-4.3c-0.2-8.3-0.2-16.6,0-24.9c0.1-3.7-1.5-4.7-4.7-4.2C342.1,208.4,341,208.4,339.8,208.4z"/>
<path class="st8" d="M200,225.5c0,5-0.1,10,0,15c0.1,3.1-1.2,4.6-4.5,4.6c-10-0.1-20,0-30,0c-3.1,0-4.6-1.5-4.6-4.6
	c0-10.2,0-20.3,0-30.4c0-3.2,1.5-4.9,4.8-4.9c9.8,0,19.6,0,29.5,0c3.4,0,4.7,1.7,4.7,5C200,215.2,200,220.4,200,225.5z M189.8,208.4
	c-1.2,0-2.4,0-3.7,0c-2.7-0.5-5.6-0.5-8.3,0c-3.2,0-6.3,0.1-9.5-0.1c-3.2-0.2-4.3,1.1-4.2,4.3c0.2,8.3,0.2,16.6,0,24.9
	c-0.1,3.7,1.5,4.7,4.7,4.2c2.7,0.5,5.6,0.5,8.3,0c1.2,0,2.4,0,3.7,0c0.9,0,1.8,0,2.7,0c3.3,0,6.7-0.1,9.9,0.1c3,0.2,4.2-1,4.1-4
	c-0.2-8.5-0.2-16.9,0-25.4c0.1-3.4-1.6-4.4-4.6-4C191.9,208.4,190.9,208.4,189.8,208.4z"/>
<path class="st8" d="M281.5,293c-4.8,0-9.7-0.2-14.5,0c-4.3,0.2-6-1.9-6-6c0.1-9.2,0.1-18.3,0-27.5c0-3.7,1.3-5.6,5.2-5.6
	c9.8,0.1,19.6,0.1,29.5,0c3.9,0,5.3,1.7,5.3,5.5c-0.1,9.5-0.1,19,0,28.5c0.1,3.6-1.4,5.2-5.1,5.1C291.2,293,286.4,293,281.5,293z
	 M289.9,257.3c-1.2,0-2.5,0.1-3.7,0.1c-2.7-0.1-5.5-0.1-8.2-0.2c-3,0-6,0.2-9-0.1c-3.4-0.2-4.7,0.8-4.7,4.4c0.2,8.2,0.2,16.3,0,24.5
	c-0.1,3.6,1.3,4.8,4.7,4.4c2.7,0.8,5.5,0.7,8.2,0c1.2,0,2.3,0,3.5,0c1,0.6,2,0.5,3,0c3.3,0,6.7-0.1,10,0.1c3,0.2,4.1-1.1,4.1-4.1
	c-0.2-8.3-0.2-16.6,0-25c0.1-3.7-1.3-4.8-4.7-4.2C292,257.3,291,257.3,289.9,257.3z"/>
<path class="st9" d="M319,290.5c-3.4,0.5-4.7-0.8-4.7-4.3c0.2-8.2,0.2-16.5,0-24.7c-0.1-3,0.7-4.7,4.2-4.3c3.1,0.2,6.2,0.1,9.4,0.1
	c-0.2,1.7-0.1,3.3-0.5,4.8C324.7,271.6,321.8,281.1,319,290.5z"/>
<path class="st9" d="M219,290.5c-3.7,0.6-5.1-0.8-4.9-4.7c0.2-8.2,0.2-16.3,0-24.5c-0.1-3.2,1-4.5,4.3-4.2c3.2,0.2,6.3,0.1,9.5,0.1
	c0.3,2.6-0.6,4.9-1.2,7.2C224.2,273.2,221.6,281.8,219,290.5z"/>
<path class="st9" d="M169.1,290.5c-3.4,0.5-5.2-0.5-5-4.5c0.2-8.2,0.2-16.6,0-24.8c-0.1-2.9,0.8-4.2,3.9-4.1
	c3.3,0.2,6.7,0.1,9.9,0.1c0.2,2-0.4,3.9-1,5.8C174.3,272.2,171.7,281.4,169.1,290.5z"/>
<path class="st9" d="M243.1,257.3c3.3-0.7,4.8,0.4,4.7,4.1c-0.2,8.2-0.2,16.5,0,24.7c0.1,3.6-1.3,4.7-4.7,4.5
	c-3.2-0.2-6.2-0.1-9.4-0.1C235.9,279.1,239.8,268.3,243.1,257.3z"/>
<path class="st9" d="M193.1,257.3c3-0.5,4.7,0.2,4.6,3.7c-0.2,8.5-0.2,16.9,0,25.4c0.1,3.3-1.3,4.4-4.5,4.2
	c-3.2-0.2-6.3-0.1-9.4-0.1C185.7,279.1,189.9,268.3,193.1,257.3z"/>
<path class="st9" d="M343.1,257.3c3.7-0.7,5,0.6,4.8,4.4c-0.2,8.2-0.2,16.6,0,24.8c0.1,3-1.1,4.2-4.1,4.1c-3.3-0.2-6.7-0.1-9.9-0.1
	c0.3-1.7,0.5-3.6,1-5.3C337.6,275.9,340.4,266.6,343.1,257.3z"/>
<path class="st10" d="M319,290.5c2.8-9.5,5.7-18.9,8.4-28.5c0.4-1.6,0.3-3.2,0.5-4.8c3.1,0,6.1,0,9.2,0c-3.4,11-7.1,21.8-9.5,33.1
	C324.7,291.5,321.9,291.2,319,290.5z"/>
<path class="st10" d="M169.1,290.5c2.7-9.2,5.2-18.3,7.9-27.5c0.6-1.9,1.2-3.7,1-5.8c2.7,0,5.5,0.1,8.2,0.1
	c-0.3,1.7-0.6,3.6-1.1,5.3c-2.7,9.3-5.3,18.6-8,27.8C174.3,291.3,171.7,291.3,169.1,290.5z"/>
<path class="st10" d="M219,290.5c2.5-8.7,5.1-17.4,7.6-26.1c0.7-2.3,1.6-4.7,1.2-7.2c2.7,0,5.5,0.1,8.2,0.1
	c-0.4,2.1-0.7,4.2-1.3,6.3c-2.5,9-5.1,17.9-7.7,26.8C224.5,291.3,221.8,291.3,219,290.5z"/>
<path class="st9" d="M227.2,290.5c2.6-8.9,5.2-17.9,7.7-26.8c0.6-2.1,0.9-4.2,1.3-6.3c1.2,0,2.5-0.1,3.7-0.1
	c-0.4,1.7-0.7,3.6-1.2,5.2c-2.7,9.3-5.3,18.6-7.9,28C229.6,290.5,228.4,290.5,227.2,290.5z"/>
<path class="st9" d="M177,290.5c2.7-9.2,5.4-18.6,8-27.8c0.5-1.7,0.7-3.6,1.1-5.3c1.2,0,2.5,0,3.7-0.1c-0.5,2.1-1,4.2-1.5,6.2
	c-2.2,9.1-6,17.7-7.3,27.1C179.7,290.5,178.3,290.5,177,290.5z"/>
<path class="st9" d="M327.6,290.4c2.4-11.2,6.1-22.1,9.5-33.1c0.9,0,1.9,0,2.8,0c0.2,2.3-0.7,4.5-1.4,6.7
	c-2.5,8.8-5.7,17.5-7.5,26.6C329.9,290.5,328.7,290.4,327.6,290.4z"/>
<path class="st10" d="M331.1,290.5c1.8-9.1,5-17.7,7.5-26.6c0.6-2.2,1.5-4.3,1.4-6.7c1.1,0,2.1,0,3.2,0c-2.7,9.3-5.5,18.6-8.2,27.9
	c-0.5,1.7-0.7,3.5-1,5.3C333,291.1,332.1,291.1,331.1,290.5z"/>
<path class="st10" d="M181.1,290.5c1.3-9.3,5.1-18,7.3-27.1c0.5-2.1,1-4.2,1.5-6.2c1.1,0,2.1,0,3.2,0c-3.2,11.1-7.3,21.8-9.3,33.2
	C182.8,291,182,291.1,181.1,290.5z"/>
<path class="st10" d="M230.8,290.5c2.7-9.3,5.3-18.6,7.9-28c0.5-1.7,0.8-3.5,1.2-5.2c1.1,0,2.1,0,3.2,0c-3.2,11.1-7.2,21.9-9.4,33.2
	C232.8,291,231.8,291,230.8,290.5z"/>
<path class="st11" d="M254.1,314.3c1.2,0,2.5,0.1,3.8,0.1c0,27.6,0.1,55.3,0.1,82.9c0,2.5,0.2,5.4-3.8,4.7
	C254.2,372.7,254.1,343.5,254.1,314.3z"/>
<path class="st9" d="M293.2,208.4c3.4-0.6,4.7,0.7,4.7,4.2c-0.2,8.2-0.2,16.6,0,24.8c0.1,3.2-0.9,4.6-4.2,4.3
	c-3.2-0.2-6.2-0.1-9.4-0.1c0.1-1.5-0.1-3,0.3-4.4C287.4,227.6,290.3,218,293.2,208.4z"/>
<path class="st9" d="M268.8,241.7c-3.1,0.5-4.6-0.6-4.5-4c0.2-8.3,0.2-16.6,0-25c-0.1-3.7,1.4-4.7,4.7-4.4c3.2,0.2,6.3,0.1,9.5,0.1
	C275.8,219.6,272.3,230.7,268.8,241.7z"/>
<path class="st10" d="M268.8,241.7c3.5-11,7-22.1,9.7-33.3c2.6-0.5,5.2-0.5,7.7,0c0.1,2.6-0.8,4.9-1.6,7.3c-2.4,8.5-4.7,17-7.2,25.5
	C274.7,242.8,271.8,241.9,268.8,241.7z"/>
<path class="st9" d="M277.6,241.2c2.4-8.5,4.7-17,7.2-25.5c0.7-2.4,1.6-4.7,1.6-7.3c1.2,0,2.4,0,3.7,0c0.2,2.4-0.7,4.5-1.3,6.7
	c-2.4,8.9-5.7,17.5-7.4,26.6C279.9,241.5,278.7,241.4,277.6,241.2z"/>
<path class="st10" d="M281.1,241.7c1.7-9.1,5-17.6,7.4-26.6c0.6-2.2,1.6-4.3,1.3-6.7c1.1,0,2.2,0,3.3,0c-2.9,9.7-5.8,19.2-8.7,28.9
	c-0.4,1.4-0.2,2.9-0.3,4.4C283.1,242.1,282.1,242.1,281.1,241.7z"/>
<path class="st9" d="M218.9,241.7c-3.4,0.6-4.7-0.7-4.7-4.2c0.2-8.2,0.2-16.6,0-24.8c-0.1-3.2,0.9-4.6,4.2-4.3
	c3.2,0.2,6.2,0.1,9.4,0.1c-0.1,1.5,0.1,3-0.3,4.4C224.7,222.5,221.7,232,218.9,241.7z"/>
<path class="st9" d="M243.2,208.4c3.1-0.5,4.6,0.5,4.5,4c-0.2,8.3-0.2,16.6,0,25c0.1,3.6-1.4,4.7-4.7,4.5c-3.2-0.2-6.3-0.1-9.5-0.1
	C236.2,230.5,239.7,219.5,243.2,208.4z"/>
<path class="st10" d="M218.9,241.7c2.9-9.7,5.8-19.2,8.7-28.9c0.4-1.4,0.2-2.9,0.3-4.4c2.7-0.5,5.6-0.5,8.3,0
	c-0.4,2.1-0.7,4.2-1.3,6.2c-2.5,9-5.2,18-7.7,27.1C224.4,242.2,221.6,242.2,218.9,241.7z"/>
<path class="st9" d="M227.2,241.7c2.6-9,5.2-18,7.7-27.1c0.6-2.1,0.9-4.2,1.3-6.2c1.2,0,2.4,0,3.7,0c-0.4,2.1-0.7,4.2-1.3,6.2
	c-2.5,9-5.2,18-7.7,27.1C229.6,241.7,228.4,241.7,227.2,241.7z"/>
<path class="st10" d="M230.9,241.7c2.6-9,5.2-18,7.7-27.1c0.6-2.1,0.8-4.2,1.3-6.2c1.1,0,2.2,0,3.3,0c-3.5,11-7,22.1-9.7,33.3
	C232.6,241.7,231.7,241.7,230.9,241.7z"/>
<path class="st9" d="M343.2,208.4c3.2-0.5,4.8,0.4,4.7,4.2c-0.2,8.3-0.2,16.6,0,24.9c0.1,3.2-1,4.5-4.2,4.3
	c-3.2-0.2-6.3-0.1-9.5-0.1c-0.3-2.2,0.4-4.2,1-6.3C337.8,226.4,340.5,217.4,343.2,208.4z"/>
<path class="st9" d="M319.1,241.7c-3.6,0.6-4.7-1.2-4.6-4.5c0.2-8.2,0.2-16.2-0.1-24.4c-0.1-3.5,1.2-4.7,4.7-4.5
	c3.2,0.2,6.3,0.1,9.4,0.1C326.2,219.7,322.2,230.5,319.1,241.7z"/>
<path class="st10" d="M319.1,241.7c3.1-11.1,7.1-22,9.5-33.3c2.9-0.6,5.7-0.5,8.7,0c-3.7,10.8-6.9,21.7-9.7,32.8
	C324.8,242.8,321.9,242,319.1,241.7z"/>
<path class="st9" d="M327.6,241.2c2.7-11.1,6-22,9.7-32.8c0.9,0,1.7,0,2.7,0c0.3,2-0.5,3.9-1,5.7c-2.4,9.2-6,18.1-7.7,27.5
	C329.9,241.5,328.7,241.4,327.6,241.2z"/>
<path class="st10" d="M331.2,241.7c1.7-9.4,5.2-18.3,7.7-27.5c0.5-1.9,1.3-3.7,1-5.7c1.1,0,2.2,0,3.3,0c-2.7,9-5.4,18-8,27
	c-0.6,2.1-1.3,4.1-1,6.3C333.2,242.1,332.2,242.1,331.2,241.7z"/>
<path class="st9" d="M168.8,241.7c-3.2,0.5-4.8-0.4-4.7-4.2c0.2-8.3,0.2-16.6,0-24.9c-0.1-3.2,1-4.5,4.2-4.3
	c3.2,0.2,6.3,0.1,9.5,0.1c0.3,2.2-0.4,4.2-1,6.3C174.2,223.7,171.5,232.7,168.8,241.7z"/>
<path class="st9" d="M193,208.4c3-0.4,4.7,0.6,4.6,4c-0.2,8.5-0.1,16.9,0,25.4c0.1,3-1.1,4.2-4.1,4c-3.3-0.2-6.7-0.1-9.9-0.1
	C185.8,230.4,189.8,219.5,193,208.4z"/>
<path class="st10" d="M168.8,241.7c2.7-9,5.4-18,8-27c0.6-2.1,1.3-4.1,1-6.3c2.7-0.5,5.6-0.5,8.3,0c-0.4,2.1-0.8,4.2-1.3,6.2
	c-2.5,9-5.1,18-7.7,27.1C174.4,242.2,171.6,242.2,168.8,241.7z"/>
<path class="st9" d="M177.2,241.7c2.6-9,5.2-18,7.7-27.1c0.6-2.1,0.9-4.2,1.3-6.2c1.2,0,2.4,0,3.7,0c-0.4,1.7-0.7,3.6-1.2,5.2
	c-2.6,9.3-5.2,18.6-7.8,28C179.6,241.7,178.4,241.7,177.2,241.7z"/>
<path class="st10" d="M180.8,241.7c2.6-9.3,5.2-18.6,7.8-28c0.5-1.7,0.7-3.5,1.2-5.2c1.1,0,2.1,0,3.2,0c-3.1,11.2-7.1,22-9.5,33.3
	C182.6,241.7,181.7,241.7,180.8,241.7z"/>
<path class="st9" d="M269.1,290.5c-3.3,0.5-4.8-0.7-4.7-4.4c0.2-8.2,0.2-16.3,0-24.5c-0.1-3.6,1.2-4.7,4.7-4.4c3,0.2,6,0.1,9,0.1
	c0.2,1.8-0.1,3.6-0.6,5.3C274.6,271.9,271.8,281.1,269.1,290.5z"/>
<path class="st9" d="M293.1,257.3c3.4-0.7,4.8,0.5,4.7,4.2c-0.2,8.3-0.2,16.6,0,25c0.1,3-1,4.2-4.1,4.1c-3.3-0.2-6.7-0.1-10-0.1
	C286,279.1,290,268.3,293.1,257.3z"/>
<path class="st10" d="M269.1,290.5c2.7-9.3,5.5-18.6,8.3-27.9c0.5-1.7,0.8-3.5,0.6-5.3c2.7,0.1,5.5,0.1,8.2,0.2
	c-0.4,2.1-0.7,4.2-1.2,6.3c-2.5,8.9-5.1,17.8-7.7,26.7C274.6,291.2,271.8,291.3,269.1,290.5z"/>
<path class="st9" d="M277.3,290.5c2.6-8.9,5.2-17.8,7.7-26.7c0.6-2.1,0.8-4.2,1.2-6.3c1.2,0,2.5-0.1,3.7-0.1
	c-0.3,1.8-0.6,3.7-1.1,5.4c-2.7,9.2-5.4,18.6-8.1,27.8C279.6,290.5,278.5,290.5,277.3,290.5z"/>
<path class="st10" d="M280.8,290.5c2.7-9.2,5.4-18.6,8.1-27.8c0.5-1.7,0.7-3.6,1.1-5.4c1.1,0,2.2,0,3.2,0c-3.2,11-7.2,21.8-9.4,33.1
	C282.8,291,281.8,291,280.8,290.5z"/>
<g>
	<path class="st1" d="M282.5,69.8c1.6-3.4,2.6-6.9,2.8-10.7c-3.9,0-7.7,0-11.5,0c-0.4,2.8-0.8,5.6-1.2,8.5c-1.5-0.3-2.7-0.7-3.9-0.9
		c0.3-2.6,0.7-5.1,1.1-7.7c-4.1,0-7.9,0-11.7,0c0,4.1,0,8.2,0,12.4c2.2,0,4.4,0,6.7,0c0.1,1.6,0.2,3.1,0.2,4.6
		c0.1,1.2-0.1,2.2,0.2,3.4c0.2,1.2-0.2,2-1,2.8c-1.2,1.3-2.4,2.7-3.4,3.8c1.2-0.2,2.8-0.7,4.6-1.1c0,1.3,0,2.7,0,4.1
		c-3.8,1.2-7.9,1.7-12,1.2c-14.3-1.7-24.1-9.2-29-22.7c-6.9-19.4,5.4-40.3,25.6-44.2c17.9-3.4,35.8,8.9,39,26.9
		c1.2,6.7,0.5,13.3-2.1,19.6c-0.2,0.7-0.7,0.8-1.2,0.7c-0.9-0.2-1.8-0.4-2.8-0.7C282.7,70,282.7,70,282.5,69.8z M241.2,59.1
		c0.4,4.4,1.9,8.3,4.1,12.1c0.2,0.2,0.6,0.4,0.9,0.4c1.4,0.1,2.8,0,4.2,0c1.2,0,2.4,0,3.7,0c0-4.2,0-8.3,0-12.5
		C249.7,59.1,245.5,59.1,241.2,59.1z M226.7,59.2c0,3.2,1.8,9.4,3.6,12c0.2,0.2,0.7,0.4,1,0.4c2.9,0,5.8,0,8.7,0
		c0.2,0,0.5-0.1,0.8-0.1c-2-4-3.3-8-3.7-12.4C233.6,59.2,230.2,59.2,226.7,59.2z M285.5,55.2c-0.2-3.4-0.9-6.6-2.1-9.7
		c-0.2-0.6-0.6-0.8-1.2-0.8c-3.5,0-7,0-10.5,0c-0.2,0-0.5,0.1-0.6,0.1c0.9,3.5,1.8,7,2.7,10.5C277.6,55.2,281.5,55.2,285.5,55.2z
		 M254,44.6c-3.3,0-6.7,0-9.9,0c-0.2,0-0.6,0.3-0.7,0.6c-0.6,1.5-1.2,3.1-1.6,4.7c-0.4,1.7-0.7,3.4-0.9,5.2c4.5,0,8.7,0,13.1,0
		C254,51.6,254,48.2,254,44.6z M280.7,40.6c-2.7-6.2-14.5-13.7-20.9-13.3c0.1,0.2,0.2,0.2,0.2,0.3c3.3,3.9,6.2,8,8.7,12.5
		c0.2,0.2,0.7,0.5,1,0.5c2.5,0,4.9,0,7.4,0C278.3,40.6,279.5,40.6,280.7,40.6z M226.6,55.1c3.5,0,6.9,0,10.1,0
		c0.7-3.6,1.6-7,2.3-10.5c-2.4,0-4.9,0-7.4,0c-2.7,0-2.7,0-3.5,2.5C227.3,49.7,226.7,52.3,226.6,55.1z M269.5,55.2
		c-0.4-3.6-1.5-6.9-2.9-10.1c-0.1-0.2-0.5-0.4-0.7-0.4c-1.2-0.1-2.3,0-3.5,0c-1.4,0-2.7,0-4.2,0c0,3.6,0,7,0,10.5
		C261.9,55.2,265.6,55.2,269.5,55.2z M251.4,27.3c-8.7,1.6-15.2,6-20.1,13.4c3.3,0,6.3,0,9.4,0c0.3,0,0.7-0.4,0.9-0.7
		c1.2-1.9,2.4-3.9,3.8-5.7C247.3,31.8,249.3,29.6,251.4,27.3z M252.5,86.4c-0.2-0.2-0.2-0.3-0.2-0.4c-3.2-3-6.2-6.2-8.7-9.8
		c-0.2-0.2-0.7-0.4-1.1-0.4c-2.8-0.1-5.7,0-8.5,0c-0.2,0-0.3,0.1-0.7,0.2C238.3,81.7,244.7,85.3,252.5,86.4z M245.8,40.5
		c2.8,0,5.5,0,8.2,0c0-3.3,0-6.6,0-10C250.7,33.6,248.1,36.8,245.8,40.5z M258.1,40.6c2.1,0,4.1,0,6.5,0c-2.2-3.1-4.2-6-6.2-8.9
		c-0.1,0.1-0.2,0.1-0.2,0.2C258.1,34.7,258.1,37.6,258.1,40.6z M258.1,82.7c2.4-2.2,4.5-4.4,6.2-7c-2.2,0-4.2,0-6.2,0
		C258.1,78,258.1,80.3,258.1,82.7z M253.7,82.2c0.1-0.1,0.2-0.1,0.2-0.2c0-2.1,0-4.2,0-6.3c-1.9,0-3.8,0-6,0
		C250,78,251.8,80,253.7,82.2z"/>
	<path class="st1" d="M286.3,74.9c-2.2,1.7-4.3,3.3-6.5,5c2.7,3.4,5.3,6.7,8,10.2c-1.7,1.2-3.2,2.5-4.9,3.7c-2.7-3.4-5.3-6.7-8-10.2
		c-2.2,1.7-4.4,3.4-6.8,5.2c-0.2-6.7-0.6-13.1-0.8-19.7C273.6,71.1,279.8,73,286.3,74.9z"/>
</g>
<g id="Layer_2">
	<g>
		<path class="st0" d="M258,117.6l-1.8-1.6l-1.8,1.6c-1,0.7-20.7,17.9-20.7,33.1c0,12.4,10.1,22.5,22.5,22.5
			c12.4,0,22.5-10.1,22.5-22.5C278.7,135.5,259,118.3,258,117.6z M262.4,163.2l-2.5-5c2.9-1.4,4.7-4.3,4.7-7.5h5.6
			C270.2,156,267.2,160.9,262.4,163.2z"/>
	</g>
</g>
</svg>
