<?xml version="1.0" encoding="utf-8"?>
<!-- Generator: Adobe Illustrator 24.1.2, SVG Export Plug-In . SVG Version: 6.00 Build 0)  -->
<svg version="1.1" id="Layer_1" xmlns="http://www.w3.org/2000/svg" xmlns:xlink="http://www.w3.org/1999/xlink" x="0px" y="0px"
	 viewBox="0 0 512 512" style="enable-background:new 0 0 512 512;" xml:space="preserve">
<style type="text/css">
	.st0{fill:#2CA7E0;}
	.st1{fill:#FFFFFF;}
	.st2{fill:none;}
</style>
<path class="st0" d="M512,118.7v276.4c0,64.6-52.3,116.9-116.9,116.9H116.9C52.3,512,0,459.7,0,395.1V117C0,52.4,52.4,0,117,0h276.3
	C458.9,0,512,53.1,512,118.7z"/>
<path id="Brid_1_" class="st1" d="M416,162.1c-11.7,5.3-29.9,11.7-42.7,13.9c13.9-8.5,26.7-27.7,32-42.7
	c-10.7,6.4-22.4,14.9-34.1,19.2l-8.5-8.5c-11.7-12.8-23.5-21.3-42.7-21.3c-36.3,0-64,27.7-64,64c0,4.3,0,7.5,1.1,10.7H256
	c-64,0-106.7-13.9-138.7-53.3c-5.3,9.6-10.7,20.3-10.7,32c0,22.4,13.9,41.6,32,53.3c-10.7,0-23.5-5.3-32-10.7
	c0,32,44.8,68.3,74.7,74.7c-10.7,10.7-49.1,1.1-53.3,0c8.5,25.6,35.2,41.6,64,42.7c-22.4,17.1-49.1,26.7-80,26.7
	c-5.3,0-10.7,0-16-1.1c28.8,18.1,69.3,27.7,106.7,27.7C323.2,389.3,384,294.4,384,208c0-3.2,0-7.5,0-10.7
	C396.8,187.7,407.5,174.9,416,162.1z"/>
<g>
	<g>
		<path class="st2" d="M512,118.7v276.4c0,64.6-52.3,116.9-116.9,116.9H116.9C52.3,512,0,459.7,0,395.1V117C0,52.4,52.4,0,117,0
			h276.3C458.9,0,512,53.1,512,118.7z"/>
	</g>
</g>
</svg>
