<?xml version="1.0" encoding="utf-8"?>
<!-- Generator: Adobe Illustrator 24.1.2, SVG Export Plug-In . SVG Version: 6.00 Build 0)  -->
<svg version="1.1" id="Camada_1" xmlns="http://www.w3.org/2000/svg" xmlns:xlink="http://www.w3.org/1999/xlink" x="0px" y="0px"
	 viewBox="0 0 1535.6 1280" style="enable-background:new 0 0 1535.6 1280;" xml:space="preserve">
<style type="text/css">
	.st0{fill:none;}
	.st1{fill:#BD0F17;}
</style>
<line class="st0" x1="853.8" y1="317.2" x2="853.2" y2="318.2"/>
<line class="st0" x1="853.2" y1="318.2" x2="852.7" y2="317.2"/>
<line class="st0" x1="938.7" y1="477.8" x2="933.7" y2="468.4"/>
<g>
	<g>
		<path class="st1" d="M1514.8,602.4c-110.4-153.6-199.5-313.3-258-481.8c-34.1,132.4-141.2,313.4-274.1,511.8
			c-31.1,52.9-49.1,115.3-49.1,182.2c0,190.4,145.5,344.8,325,344.8c117.1,0,219.8-65.7,277-164.3V634.1
			C1529.2,623.1,1522.3,612.5,1514.8,602.4z M1377.2,1045.8c114-110.9,135.5-246.4,64.7-406.6
			C1562.9,778,1545.3,986.1,1377.2,1045.8z"/>
	</g>
</g>
</svg>
