<?xml version="1.0" encoding="utf-8"?>
<!-- Generator: Adobe Illustrator 24.1.2, SVG Export Plug-In . SVG Version: 6.00 Build 0)  -->
<svg version="1.1" id="Layer_1" xmlns="http://www.w3.org/2000/svg" xmlns:xlink="http://www.w3.org/1999/xlink" x="0px" y="0px"
	 viewBox="0 0 512 512" style="enable-background:new 0 0 512 512;" xml:space="preserve">
<style type="text/css">
	.st0{fill:#FF0000;}
	.st1{fill:#EAEFF2;}
	.st2{fill:#D4D4D8;}
	.st3{fill:#E1E2E5;}
	.st4{fill:#657A8B;}
	.st5{fill:#647989;}
	.st6{fill:#D6D6DB;}
	.st7{fill:#919EAA;}
	.st8{fill:#E1E6E9;}
	.st9{fill:#28A2DA;}
	.st10{fill:#6BC5E6;}
	.st11{fill:#344D5E;}
	.st12{fill:#FFFFFF;stroke:#000000;stroke-width:20;stroke-miterlimit:10;}
</style>
<path class="st0" d="M7.6,237.5c0.1,0,0.2-0.1,0.2-0.1v37.5c-0.1-0.2-0.1-0.5-0.2-0.7V237.5z"/>
<path class="st0" d="M512.2,120v276.4c0,64.6-52.3,116.9-116.9,116.9H117.1C52.5,513.3,0.2,461,0.2,396.4V118.3
	c0-64.6,52.4-117,117-117h276.3C459.1,1.3,512.2,54.4,512.2,120z"/>
<path class="st1" d="M380.2,475.6c-22.8,0-45.7,0.1-68.5,0.1c0-33.8-0.1-67.9-0.1-101.8c0-7.8-0.2-8-7.9-8c-33.8,0-67.9,0-101.8,0
	c-8.5,0-8.5,0.1-8.5,8.6c0,33.7-0.1,67.5-0.1,101.2c-22.8,0-45.7-0.1-68.5-0.1c0-10.4-0.1-20.8-0.1-31.4c0-61.3-0.1-122.6-0.1-183.9
	c0-10.9,0-21.9-0.1-32.8c85.4,0,170.8,0,256.1,0c0,10.9,0,21.9-0.1,32.9c0,3.9-0.1,7.9-0.1,11.8
	C380.2,339.9,380.2,407.8,380.2,475.6z M341.2,342.7c1.2,0.8,2.2,0.7,3.4,0c3.9,0,7.9-0.1,11.7,0.1c3.6,0.2,4.9-1.2,4.9-4.9
	c-0.2-9.7-0.2-19.6,0-29.3c0.1-4.5-1.4-6.2-5.7-5.2c-1.3,0-2.5,0-3.8,0c-1.1,0-2.2,0-3.3,0c-3.7,0-7.2,0-10.9,0
	c-3.8,0-7.5,0.2-11.1-0.1c-4.1-0.4-5,1.5-5,5.1c0.1,9.7,0.2,19.5,0,29.2c-0.1,4.1,1.4,5.7,5.6,5.1c3.4,0.8,6.7,1.2,10.2-0.2
	C338.4,342.6,339.8,342.7,341.2,342.7z M174.2,303.4c-1.4,0-3,0-4.4,0.1c-3.2,0-6.5-0.1-9.7-0.1c-3.9,0-7.9,0.1-11.7-0.1
	c-3.8-0.2-4.7,1.4-4.6,4.9c0.2,9.7,0.2,19.6,0,29.3c-0.2,4.7,1.9,5.8,5.9,5.3c3.2,0.9,6.3,0.8,9.5,0c1.5,0,3.2,0,4.9,0
	c1.1,0.8,2,0.7,3.2-0.1c3.8,0,7.5-0.1,11.1,0.1c3.8,0.2,5.3-0.9,5.3-5c-0.2-10.1-0.2-20,0-30.1c0.1-4.3-1.9-5.1-5.4-4.4
	C176.8,303.4,175.5,303.4,174.2,303.4z M222.6,342.7c1.2,0.7,2.4,0.6,3.4,0c3.8,0,7.3-0.1,11.1,0.1c3.9,0.2,5.6-1.1,5.6-5.3
	c-0.2-9.7-0.2-19.5,0-29.2c0.1-4.4-1.5-5.6-5.6-4.9c-1.3,0-2.5,0-3.8,0c-1.4,0-3,0.1-4.4,0.1c-3.2,0-6.5-0.1-9.7-0.1
	c-3.8,0-7.5,0.1-11.2-0.1c-3.9-0.2-5.1,1.2-5.1,5c0.2,9.7,0.2,19.3,0,29c-0.1,4.5,1.4,6.2,5.8,5.6c3.2,0.9,6.4,0.8,9.7,0
	C219.7,342.7,221.1,342.7,222.6,342.7z M282.6,241.7c-5.9,0-11.8,0.1-17.8,0c-4.4-0.1-6.5,1.7-6.5,6.3c0.1,11.6,0.1,23.2,0,34.9
	c0,4.6,2.2,6.2,6.6,6.2c11.5-0.1,22.8-0.1,34.3,0c4.4,0,6.5-1.7,6.5-6.3c-0.1-11.6-0.1-23.2,0-34.9c0-4.6-2.2-6.3-6.6-6.2
	C293.6,241.7,288,241.7,282.6,241.7z M222.1,288.9c6.2,0,12.2-0.1,18.3,0c4.1,0.1,6.2-1.8,6.2-6c-0.1-11.6,0-23.2,0-34.9
	c0-4.4-1.9-6.5-6.4-6.5c-11.6,0.1-23.2,0.1-34.9,0c-4.3,0-6,2-6,6.2c0.1,11.8,0.1,23.7,0,35.5c0,3.9,1.9,5.8,5.7,5.7
	C210.6,288.9,216.3,288.9,222.1,288.9z M364.8,265.6c0-5.9-0.1-11.8,0-17.8c0.1-4.1-1.7-6.2-5.9-6.2c-11.5,0.1-22.8,0.1-34.3,0
	c-4.3,0-6,2-6,6.2c0.1,11.8,0.1,23.7,0,35.4c-0.1,4.4,2,5.8,6.2,5.8c11.2-0.1,22.5-0.1,33.7,0c4.4,0,6.5-1.8,6.4-6.3
	C364.8,276.9,364.8,271.1,364.8,265.6z M186.1,265.8c0-6.2,0-12.2,0-18.3c0-3.8-1.5-5.9-5.6-5.9c-11.6,0-23.2,0-34.9,0
	c-3.9,0-5.7,2-5.7,5.8c0,12.1,0,24,0,36c0,3.7,1.8,5.4,5.4,5.4c11.8,0,23.7,0,35.5,0c3.8,0,5.3-1.8,5.3-5.4
	C186.1,277.5,186.1,271.7,186.1,265.8z M282.6,345.7c5.7,0,11.5-0.1,17.2,0c4.4,0.1,6-1.7,6-6c-0.1-11.2-0.1-22.5,0-33.7
	c0-4.4-1.7-6.5-6.3-6.5c-11.6,0.1-23.2,0.1-34.9,0c-4.6,0-6.2,2.2-6.2,6.6c0.1,10.9,0.1,21.7,0,32.5c0,4.9,2,7.3,7.1,7.1
	C271.2,345.7,276.9,345.7,282.6,345.7z"/>
<path class="st2" d="M124.5,260.4c0,61.3,0.1,122.6,0.1,183.9c0,10.4,0.1,20.8,0.1,31.4c-15,0.1-30.1,0.2-45,0.2
	c-1.2-2-0.8-4.3-0.8-6.3c0-67.2,0.1-134.4-0.1-201.6c0-5.9,2-7.2,7.3-7.1C98.8,260.8,111.6,261.6,124.5,260.4z"/>
<path class="st1" d="M318.8,129.1c0,27.6,0,55.3-0.1,82.8H186.1c0-26,0.1-51.9,0-77.9c0-4,0.6-5.9,5.4-5.9
	c40.9,0.2,81.9,0.1,122.8,0.1C315.8,128.3,317.3,128,318.8,129.1z"/>
<path class="st3" d="M186.1,212c44.3,0,88.4,0,132.5,0c19.4,0,38.8,0,58.2,0.2c2.6,0,6.5-0.9,7.6,1.4c1.8,3.7,0.9,8,0.4,12.1
	c-0.4,2.4-3,1.1-4.4,1.7c-85.4,0-170.8,0-256.1,0c-4.5,0.4-4.9-2.4-4.9-5.9c0.1-9.3,0-9.5,9.2-9.5
	C147.9,212.1,166.9,212.1,186.1,212z"/>
<path class="st2" d="M380.2,475.6c0-67.8,0.1-135.6,0.1-203.4c0-3.9,0.1-7.9,0.1-11.8c13,1.1,26,0.5,39.1,0.4
	c5.6-0.1,6.7,1.9,6.7,7.1c-0.2,67.1-0.2,134.1,0,201.2c0,5.6-1.7,7-7,6.9C406.2,475.4,393.1,475.6,380.2,475.6z"/>
<path class="st4" d="M304.9,475.7c-18.5,0-36.7-0.1-55.1-0.1c0-0.2,0-0.5-0.1-0.7c0.1-0.2,0.2-0.2,0.4-0.5c4.7,0.8,4.5-2.6,4.5-5.6
	c0-32.7-0.1-65.4-0.1-98.1c15.1-0.1,30.3,0,45.6-0.2c4.4-0.1,5.2,2,5.2,5.7c-0.1,13.3,0,26.4-0.1,39.6
	C305.3,436,305,455.9,304.9,475.7z"/>
<path class="st5" d="M201.1,475.7c-0.5,0-0.8,0-1.4,0c-0.1-33.5-0.2-67-0.4-100.6c0-3.8,1.9-4.5,5.1-4.5c15.1,0.1,30.3,0.1,45.6,0.1
	c0,34.6,0,69.1,0.1,103.7c-0.1,0.2-0.2,0.2-0.4,0.5c-11.1-0.1-22.4-0.2-33.5-0.2C211.3,474.9,206.1,473.9,201.1,475.7z"/>
<path class="st6" d="M250.1,370.9c-15.1,0-30.3,0-45.6-0.1c-3.3,0-5.1,0.7-5.1,4.5c0.2,33.5,0.2,67,0.4,100.6
	c-2.2,0-4.4-0.1-6.7-0.1c0-33.7,0.1-67.5,0.1-101.2c0-8.5,0.1-8.6,8.5-8.6c33.8,0,67.9,0,101.8,0c7.7,0,7.9,0.2,7.9,8
	c0,33.8,0.1,67.9,0.1,101.8c-2.2,0-4.4,0.1-6.7,0.1c0.1-19.9,0.2-39.8,0.2-59.8c0.1-13.3-0.1-26.4,0.1-39.6c0-3.8-0.7-5.8-5.2-5.7
	c-15.1,0.2-30.3,0.2-45.6,0.2C253.2,371,251.5,370.9,250.1,370.9z"/>
<path class="st7" d="M201.1,475.7c5-1.9,10.1-0.8,15.1-0.8c11.1-0.1,22.4,0.1,33.5,0.2c0,0.2,0.1,0.5,0.1,0.7
	C233.7,475.7,217.4,475.7,201.1,475.7z"/>
<path class="st8" d="M282.6,241.7c5.6,0,11,0.1,16.6,0c4.4-0.1,6.6,1.5,6.6,6.2c-0.1,11.6-0.1,23.2,0,34.9c0,4.5-2,6.3-6.5,6.3
	c-11.5-0.1-22.8-0.1-34.3,0c-4.4,0-6.6-1.5-6.6-6.2c0.1-11.6,0.1-23.2,0-34.9c0-4.5,2-6.4,6.5-6.3
	C270.7,241.7,276.6,241.7,282.6,241.7z M292.5,245.6c-1.4,0-2.8,0-4.4,0c-3.1-0.6-6.2-0.7-9.1,0c-3.8,0-7.5,0.1-11.2-0.1
	c-3.9-0.2-5.7,0.9-5.6,5.2c0.2,9.8,0.2,19.6,0,29.6c-0.1,4,1.7,5.3,5.3,4.7c3.4,0.2,7,1.3,10.3-0.6c1.4,0.2,2.8,0.4,4.3,0.6
	c1.2,0.5,2.4,0.5,3.7,0c3.8,0,7.5-0.1,11.1,0.1c3.9,0.2,5-1.4,5-5.1c-0.2-9.7-0.2-19.6,0-29.3c0.1-4.3-1.4-5.7-5.6-5
	C295,245.6,293.8,245.6,292.5,245.6z"/>
<path class="st8" d="M222.1,288.9c-5.7,0-11.5,0-17.2,0c-3.9,0-5.8-1.9-5.7-5.7c0-11.8,0.1-23.7,0-35.5c0-4.1,1.8-6.2,6-6.2
	c11.6,0.1,23.2,0.1,34.9,0c4.5,0,6.4,2.1,6.4,6.5c0,11.6,0,23.2,0,34.9c0,4.3-2,6.2-6.2,6C234.3,288.8,228.1,288.9,222.1,288.9z
	 M233.2,245.6c-1.4,0-2.8,0-4.4,0c-3.2-0.6-6.6-0.6-9.8,0c-3.8,0-7.5,0.1-11.1-0.1c-3.9-0.2-5,1.4-5,5.1c0.2,9.7,0.2,19.6,0,29.3
	c-0.1,4.3,1.4,5.7,5.6,5c3.2,0.6,6.6,0.6,9.8,0c1.4,0,2.8,0,4.4,0c1.1,0,2.1,0,3.2,0c3.8,0,7.5-0.1,11.2,0.1
	c3.9,0.2,5.7-1.1,5.6-5.3c-0.2-9.8-0.2-19.6,0-29.6c0.1-4.1-1.8-5.2-5.3-4.7C235.9,245.6,234.5,245.6,233.2,245.6z"/>
<path class="st8" d="M364.8,265.6c0,5.7-0.1,11.5,0,17.2c0.1,4.5-2,6.4-6.4,6.3c-11.2-0.1-22.5-0.1-33.7,0c-4.1,0-6.2-1.4-6.2-5.8
	c0.1-11.8,0.1-23.7,0-35.4c0-4.1,1.8-6.2,6-6.2c11.5,0.1,22.8,0.1,34.3,0c4.3,0,6,2,5.9,6.2C364.8,253.7,364.8,259.7,364.8,265.6z
	 M351.5,245.6c-1.1,0-2,0-3.2,0c-3.4-0.6-6.7-0.7-10.3,0c-3.8,0-7.5,0.2-11.1-0.1c-4-0.2-5.6,1.2-5.6,5.3c0.2,9.7,0.2,19.2,0.1,28.9
	c-0.1,4,1.2,6,5.4,5.3c3.3,0.4,6.7,1.3,10.1-0.6c1.4,0.2,2.8,0.4,4.3,0.6c1.2,0.5,2.5,0.5,3.7,0c3.8,0,7.5-0.1,11.2,0.1
	c3.8,0.2,5.1-1.3,5-5.1c-0.2-9.8-0.2-19.6,0-29.5c0.1-4.4-1.8-5.6-5.6-5C354.3,245.6,353,245.6,351.5,245.6z"/>
<path class="st8" d="M186.1,265.8c0,5.9-0.1,11.8,0,17.8c0.1,3.7-1.4,5.4-5.3,5.4c-11.8-0.1-23.7,0-35.5,0c-3.7,0-5.4-1.8-5.4-5.4
	c0-12.1,0-24,0-36c0-3.8,1.8-5.8,5.7-5.8c11.6,0,23.2,0,34.9,0c4,0,5.6,2,5.6,5.9C186.1,253.6,186.1,259.8,186.1,265.8z M174,245.6
	c-1.4,0-2.8,0-4.4,0c-3.2-0.6-6.6-0.6-9.8,0c-3.8,0-7.5,0.1-11.2-0.1c-3.8-0.2-5.1,1.3-5,5.1c0.2,9.8,0.2,19.6,0,29.5
	c-0.1,4.4,1.8,5.6,5.6,5c3.2,0.6,6.6,0.6,9.8,0c1.4,0,2.8,0,4.4,0c1.1,0,2.1,0,3.2,0c3.9,0,7.9-0.1,11.7,0.1c3.6,0.2,5-1.2,4.9-4.7
	c-0.2-10.1-0.2-20,0-30.1c0.1-4-1.9-5.2-5.4-4.7C176.5,245.6,175.3,245.6,174,245.6z"/>
<path class="st8" d="M282.6,345.7c-5.7,0-11.5-0.2-17.2,0c-5.1,0.2-7.1-2.2-7.1-7.1c0.1-10.9,0.1-21.7,0-32.5c0-4.4,1.5-6.6,6.2-6.6
	c11.6,0.1,23.2,0.1,34.9,0c4.6,0,6.3,2,6.3,6.5c-0.1,11.2-0.1,22.5,0,33.7c0.1,4.3-1.7,6.2-6,6C294,345.7,288.4,345.7,282.6,345.7z
	 M292.5,303.4c-1.4,0-3,0.1-4.4,0.1c-3.2-0.1-6.5-0.1-9.7-0.2c-3.6,0-7.1,0.2-10.7-0.1c-4-0.2-5.6,0.9-5.6,5.2
	c0.2,9.7,0.2,19.3,0,29c-0.1,4.3,1.5,5.7,5.6,5.2c3.2,0.9,6.5,0.8,9.7,0c1.4,0,2.7,0,4.1,0c1.2,0.7,2.4,0.6,3.6,0
	c3.9,0,7.9-0.1,11.8,0.1c3.6,0.2,4.9-1.3,4.9-4.9c-0.2-9.8-0.2-19.6,0-29.6c0.1-4.4-1.5-5.7-5.6-5
	C295,303.4,293.8,303.4,292.5,303.4z"/>
<path class="st9" d="M326.9,342.7c-4,0.6-5.6-0.9-5.6-5.1c0.2-9.7,0.2-19.5,0-29.2c-0.1-3.6,0.8-5.6,5-5.1c3.7,0.2,7.3,0.1,11.1,0.1
	c-0.2,2-0.1,3.9-0.6,5.7C333.7,320.4,330.2,331.6,326.9,342.7z"/>
<path class="st9" d="M208.6,342.7c-4.4,0.7-6-0.9-5.8-5.6c0.2-9.7,0.2-19.3,0-29c-0.1-3.8,1.2-5.3,5.1-5c3.8,0.2,7.5,0.1,11.2,0.1
	c0.4,3.1-0.7,5.8-1.4,8.5C214.7,322.3,211.7,332.4,208.6,342.7z"/>
<path class="st9" d="M149.5,342.7c-4,0.6-6.2-0.6-5.9-5.3c0.2-9.7,0.2-19.6,0-29.3c-0.1-3.4,0.9-5,4.6-4.9c3.9,0.2,7.9,0.1,11.7,0.1
	c0.2,2.4-0.5,4.6-1.2,6.9C155.7,321.1,152.6,332,149.5,342.7z"/>
<path class="st9" d="M237.1,303.4c3.9-0.8,5.7,0.5,5.6,4.9c-0.2,9.7-0.2,19.5,0,29.2c0.1,4.3-1.5,5.6-5.6,5.3
	c-3.8-0.2-7.3-0.1-11.1-0.1C228.6,329.2,233.2,316.5,237.1,303.4z"/>
<path class="st9" d="M177.9,303.4c3.6-0.6,5.6,0.2,5.4,4.4c-0.2,10.1-0.2,20,0,30.1c0.1,3.9-1.5,5.2-5.3,5
	c-3.8-0.2-7.5-0.1-11.1-0.1C169.2,329.2,174.2,316.5,177.9,303.4z"/>
<path class="st9" d="M355.4,303.4c4.4-0.8,5.9,0.7,5.7,5.2c-0.2,9.7-0.2,19.6,0,29.3c0.1,3.6-1.3,5-4.9,4.9
	c-3.9-0.2-7.9-0.1-11.7-0.1c0.4-2,0.6-4.3,1.2-6.3C348.9,325.5,352.3,314.5,355.4,303.4z"/>
<path class="st10" d="M326.9,342.7c3.3-11.2,6.7-22.4,9.9-33.7c0.5-1.9,0.4-3.8,0.6-5.7c3.7,0,7.2,0,10.9,0
	c-4,13-8.4,25.8-11.2,39.2C333.7,343.9,330.4,343.6,326.9,342.7z"/>
<path class="st10" d="M149.5,342.7c3.2-10.9,6.2-21.7,9.3-32.5c0.7-2.2,1.4-4.4,1.2-6.9c3.2,0,6.5,0.1,9.7,0.1
	c-0.4,2-0.7,4.3-1.3,6.3c-3.2,11-6.3,22-9.5,32.9C155.7,343.7,152.6,343.7,149.5,342.7z"/>
<path class="st10" d="M208.6,342.7c3-10.3,6-20.6,9-30.9c0.8-2.7,1.9-5.6,1.4-8.5c3.2,0,6.5,0.1,9.7,0.1c-0.5,2.5-0.8,5-1.5,7.5
	c-3,10.7-6,21.2-9.1,31.7C215.1,343.7,211.9,343.7,208.6,342.7z"/>
<path class="st9" d="M218.3,342.7c3.1-10.5,6.2-21.2,9.1-31.7c0.7-2.5,1.1-5,1.5-7.5c1.4,0,3-0.1,4.4-0.1c-0.5,2-0.8,4.3-1.4,6.2
	c-3.2,11-6.3,22-9.3,33.1C221.1,342.7,219.7,342.7,218.3,342.7z"/>
<path class="st9" d="M158.9,342.7c3.2-10.9,6.4-22,9.5-32.9c0.6-2,0.8-4.3,1.3-6.3c1.4,0,3,0,4.4-0.1c-0.6,2.5-1.2,5-1.8,7.3
	c-2.6,10.8-7.1,20.9-8.6,32.1C162.1,342.7,160.4,342.7,158.9,342.7z"/>
<path class="st9" d="M337.1,342.6c2.8-13.3,7.2-26.2,11.2-39.2c1.1,0,2.2,0,3.3,0c0.2,2.7-0.8,5.3-1.7,7.9
	c-3,10.4-6.7,20.7-8.9,31.5C339.8,342.7,338.4,342.6,337.1,342.6z"/>
<path class="st10" d="M341.2,342.7c2.1-10.8,5.9-20.9,8.9-31.5c0.7-2.6,1.8-5.1,1.7-7.9c1.3,0,2.5,0,3.8,0c-3.2,11-6.5,22-9.7,33
	c-0.6,2-0.8,4.1-1.2,6.3C343.5,343.4,342.4,343.4,341.2,342.7z"/>
<path class="st10" d="M163.7,342.7c1.5-11,6-21.3,8.6-32.1c0.6-2.5,1.2-5,1.8-7.3c1.3,0,2.5,0,3.8,0c-3.8,13.1-8.6,25.8-11,39.3
	C165.8,343.3,164.8,343.4,163.7,342.7z"/>
<path class="st10" d="M222.6,342.7c3.2-11,6.3-22,9.3-33.1c0.6-2,0.9-4.1,1.4-6.2c1.3,0,2.5,0,3.8,0c-3.8,13.1-8.5,25.9-11.1,39.3
	C224.9,343.3,223.7,343.3,222.6,342.7z"/>
<path class="st11" d="M250.1,370.9c1.4,0,3,0.1,4.5,0.1c0,32.7,0.1,65.4,0.1,98.1c0,3,0.2,6.4-4.5,5.6
	C250.2,440,250.1,405.5,250.1,370.9z"/>
<path class="st9" d="M296.4,245.6c4-0.7,5.6,0.8,5.6,5c-0.2,9.7-0.2,19.6,0,29.3c0.1,3.8-1.1,5.4-5,5.1c-3.8-0.2-7.3-0.1-11.1-0.1
	c0.1-1.8-0.1-3.6,0.4-5.2C289.5,268.3,293,256.9,296.4,245.6z"/>
<path class="st9" d="M267.5,285c-3.7,0.6-5.4-0.7-5.3-4.7c0.2-9.8,0.2-19.6,0-29.6c-0.1-4.4,1.7-5.6,5.6-5.2
	c3.8,0.2,7.5,0.1,11.2,0.1C275.8,258.8,271.7,272,267.5,285z"/>
<path class="st10" d="M267.5,285c4.1-13,8.3-26.2,11.5-39.4c3.1-0.6,6.2-0.6,9.1,0c0.1,3.1-0.9,5.8-1.9,8.6
	c-2.8,10.1-5.6,20.1-8.5,30.2C274.5,286.3,271.1,285.2,267.5,285z"/>
<path class="st9" d="M277.9,284.4c2.8-10.1,5.6-20.1,8.5-30.2c0.8-2.8,1.9-5.6,1.9-8.6c1.4,0,2.8,0,4.4,0c0.2,2.8-0.8,5.3-1.5,7.9
	c-2.8,10.5-6.7,20.7-8.8,31.5C280.7,284.7,279.2,284.6,277.9,284.4z"/>
<path class="st10" d="M282.1,285c2-10.8,5.9-20.8,8.8-31.5c0.7-2.6,1.9-5.1,1.5-7.9c1.3,0,2.6,0,3.9,0c-3.4,11.5-6.9,22.7-10.3,34.2
	c-0.5,1.7-0.2,3.4-0.4,5.2C284.4,285.5,283.3,285.5,282.1,285z"/>
<path class="st9" d="M208.5,285c-4,0.7-5.6-0.8-5.6-5c0.2-9.7,0.2-19.6,0-29.3c-0.1-3.8,1.1-5.4,5-5.1c3.8,0.2,7.3,0.1,11.1,0.1
	c-0.1,1.8,0.1,3.6-0.4,5.2C215.3,262.3,211.8,273.5,208.5,285z"/>
<path class="st9" d="M237.2,245.6c3.7-0.6,5.4,0.6,5.3,4.7c-0.2,9.8-0.2,19.6,0,29.6c0.1,4.3-1.7,5.6-5.6,5.3
	c-3.8-0.2-7.5-0.1-11.2-0.1C228.9,271.7,233.1,258.7,237.2,245.6z"/>
<path class="st10" d="M208.5,285c3.4-11.5,6.9-22.7,10.3-34.2c0.5-1.7,0.2-3.4,0.4-5.2c3.2-0.6,6.6-0.6,9.8,0
	c-0.5,2.5-0.8,5-1.5,7.3c-3,10.7-6.2,21.3-9.1,32.1C215,285.6,211.7,285.6,208.5,285z"/>
<path class="st9" d="M218.3,285c3.1-10.7,6.2-21.3,9.1-32.1c0.7-2.5,1.1-5,1.5-7.3c1.4,0,2.8,0,4.4,0c-0.5,2.5-0.8,5-1.5,7.3
	c-3,10.7-6.2,21.3-9.1,32.1C221.1,285,219.7,285,218.3,285z"/>
<path class="st10" d="M222.7,285c3.1-10.7,6.2-21.3,9.1-32.1c0.7-2.5,0.9-5,1.5-7.3c1.3,0,2.6,0,3.9,0c-4.1,13-8.3,26.2-11.5,39.4
	C224.7,285,223.6,285,222.7,285z"/>
<path class="st9" d="M355.6,245.6c3.8-0.6,5.7,0.5,5.6,5c-0.2,9.8-0.2,19.6,0,29.5c0.1,3.8-1.2,5.3-5,5.1c-3.8-0.2-7.5-0.1-11.2-0.1
	c-0.4-2.6,0.5-5,1.2-7.5C349.2,266.9,352.4,256.2,355.6,245.6z"/>
<path class="st9" d="M327,285c-4.3,0.7-5.6-1.4-5.4-5.3c0.2-9.7,0.2-19.2-0.1-28.9c-0.1-4.1,1.4-5.6,5.6-5.3
	c3.8,0.2,7.5,0.1,11.1,0.1C335.5,259,330.7,271.7,327,285z"/>
<path class="st10" d="M327,285c3.7-13.1,8.4-26,11.2-39.4c3.4-0.7,6.7-0.6,10.3,0c-4.4,12.8-8.2,25.7-11.5,38.8
	C333.8,286.3,330.4,285.3,327,285z"/>
<path class="st9" d="M337.1,284.4c3.2-13.1,7.1-26,11.5-38.8c1.1,0,2,0,3.2,0c0.4,2.4-0.6,4.6-1.2,6.7c-2.8,10.9-7.1,21.4-9.1,32.5
	C339.8,284.7,338.4,284.6,337.1,284.4z"/>
<path class="st10" d="M341.4,285c2-11.1,6.2-21.7,9.1-32.5c0.6-2.2,1.5-4.4,1.2-6.7c1.3,0,2.6,0,3.9,0c-3.2,10.7-6.4,21.3-9.5,32
	c-0.7,2.5-1.5,4.9-1.2,7.5C343.7,285.5,342.6,285.5,341.4,285z"/>
<path class="st9" d="M149.2,285c-3.8,0.6-5.7-0.5-5.6-5c0.2-9.8,0.2-19.6,0-29.5c-0.1-3.8,1.2-5.3,5-5.1c3.8,0.2,7.5,0.1,11.2,0.1
	c0.4,2.6-0.5,5-1.2,7.5C155.6,263.7,152.4,274.3,149.2,285z"/>
<path class="st9" d="M177.8,245.6c3.6-0.5,5.6,0.7,5.4,4.7c-0.2,10.1-0.1,20,0,30.1c0.1,3.6-1.3,5-4.9,4.7
	c-3.9-0.2-7.9-0.1-11.7-0.1C169.3,271.6,174,258.7,177.8,245.6z"/>
<path class="st10" d="M149.2,285c3.2-10.7,6.4-21.3,9.5-32c0.7-2.5,1.5-4.9,1.2-7.5c3.2-0.6,6.6-0.6,9.8,0c-0.5,2.5-0.9,5-1.5,7.3
	c-3,10.7-6,21.3-9.1,32.1C155.8,285.6,152.5,285.6,149.2,285z"/>
<path class="st9" d="M159.1,285c3.1-10.7,6.2-21.3,9.1-32.1c0.7-2.5,1.1-5,1.5-7.3c1.4,0,2.8,0,4.4,0c-0.5,2-0.8,4.3-1.4,6.2
	c-3.1,11-6.2,22-9.2,33.1C162,285,160.5,285,159.1,285z"/>
<path class="st10" d="M163.4,285c3.1-11,6.2-22,9.2-33.1c0.6-2,0.8-4.1,1.4-6.2c1.3,0,2.5,0,3.8,0c-3.7,13.3-8.4,26-11.2,39.4
	C165.5,285,164.5,285,163.4,285z"/>
<path class="st9" d="M267.9,342.7c-3.9,0.6-5.7-0.8-5.6-5.2c0.2-9.7,0.2-19.3,0-29c-0.1-4.3,1.4-5.6,5.6-5.2
	c3.6,0.2,7.1,0.1,10.7,0.1c0.2,2.1-0.1,4.3-0.7,6.3C274.4,320.7,271.1,331.6,267.9,342.7z"/>
<path class="st9" d="M296.3,303.4c4-0.8,5.7,0.6,5.6,5c-0.2,9.8-0.2,19.6,0,29.6c0.1,3.6-1.2,5-4.9,4.9c-3.9-0.2-7.9-0.1-11.8-0.1
	C287.9,329.2,292.6,316.5,296.3,303.4z"/>
<path class="st10" d="M267.9,342.7c3.2-11,6.5-22,9.8-33c0.6-2,0.9-4.1,0.7-6.3c3.2,0.1,6.5,0.1,9.7,0.2c-0.5,2.5-0.8,5-1.4,7.5
	c-3,10.5-6,21.1-9.1,31.6C274.4,343.6,271.1,343.7,267.9,342.7z"/>
<path class="st9" d="M277.6,342.7c3.1-10.5,6.2-21.1,9.1-31.6c0.7-2.5,0.9-5,1.4-7.5c1.4,0,3-0.1,4.4-0.1c-0.4,2.1-0.7,4.4-1.3,6.4
	c-3.2,10.9-6.4,22-9.6,32.9C280.3,342.7,279,342.7,277.6,342.7z"/>
<path class="st10" d="M281.7,342.7c3.2-10.9,6.4-22,9.6-32.9c0.6-2,0.8-4.3,1.3-6.4c1.3,0,2.6,0,3.8,0c-3.8,13-8.5,25.8-11.1,39.2
	C284.1,343.3,282.9,343.3,281.7,342.7z"/>
<g>
	<path class="st1" d="M283.7,81.6c1.9-4,3.1-8.2,3.3-12.7c-4.6,0-9.1,0-13.6,0c-0.5,3.3-0.9,6.6-1.4,10.1c-1.8-0.4-3.2-0.8-4.6-1.1
		c0.4-3.1,0.8-6,1.3-9.1c-4.9,0-9.3,0-13.8,0c0,4.9,0,9.7,0,14.7c2.6,0,5.2,0,7.9,0c0.1,1.9,0.2,3.7,0.2,5.4c0.1,1.4-0.1,2.6,0.2,4
		c0.2,1.4-0.2,2.4-1.2,3.3c-1.4,1.5-2.8,3.2-4,4.5c1.4-0.2,3.3-0.8,5.4-1.3c0,1.5,0,3.2,0,4.9c-4.5,1.4-9.3,2-14.2,1.4
		c-16.9-2-28.5-10.9-34.3-26.9c-8.2-23,6.4-47.7,30.3-52.3c21.2-4,42.4,10.5,46.2,31.8c1.4,7.9,0.6,15.7-2.5,23.2
		c-0.2,0.8-0.8,0.9-1.4,0.8c-1.1-0.2-2.1-0.5-3.3-0.8C284,81.8,284,81.8,283.7,81.6z M234.9,68.9c0.5,5.2,2.2,9.8,4.9,14.3
		c0.2,0.2,0.7,0.5,1.1,0.5c1.7,0.1,3.3,0,5,0c1.4,0,2.8,0,4.4,0c0-5,0-9.8,0-14.8C244.9,68.9,240,68.9,234.9,68.9z M217.7,69
		c0,3.8,2.1,11.1,4.3,14.2c0.2,0.2,0.8,0.5,1.2,0.5c3.4,0,6.9,0,10.3,0c0.2,0,0.6-0.1,0.9-0.1c-2.4-4.7-3.9-9.5-4.4-14.7
		C225.9,69,221.8,69,217.7,69z M287.3,64.3c-0.2-4-1.1-7.8-2.5-11.5c-0.2-0.7-0.7-0.9-1.4-0.9c-4.1,0-8.3,0-12.4,0
		c-0.2,0-0.6,0.1-0.7,0.1c1.1,4.1,2.1,8.3,3.2,12.4C277.9,64.3,282.6,64.3,287.3,64.3z M250,51.7c-3.9,0-7.9,0-11.7,0
		c-0.2,0-0.7,0.4-0.8,0.7c-0.7,1.8-1.4,3.7-1.9,5.6c-0.5,2-0.8,4-1.1,6.2c5.3,0,10.3,0,15.5,0C250,60,250,56,250,51.7z M281.6,47
		c-3.2-7.3-17.2-16.2-24.7-15.7c0.1,0.2,0.2,0.2,0.2,0.4c3.9,4.6,7.3,9.5,10.3,14.8c0.2,0.2,0.8,0.6,1.2,0.6c3,0,5.8,0,8.8,0
		C278.8,47,280.2,47,281.6,47z M217.6,64.2c4.1,0,8.2,0,12,0c0.8-4.3,1.9-8.3,2.7-12.4c-2.8,0-5.8,0-8.8,0c-3.2,0-3.2,0-4.1,3
		C218.4,57.8,217.7,60.9,217.6,64.2z M268.4,64.3c-0.5-4.3-1.8-8.2-3.4-12c-0.1-0.2-0.6-0.5-0.8-0.5c-1.4-0.1-2.7,0-4.1,0
		c-1.7,0-3.2,0-5,0c0,4.3,0,8.3,0,12.4C259.4,64.3,263.7,64.3,268.4,64.3z M246.9,31.3c-10.3,1.9-18,7.1-23.8,15.9
		c3.9,0,7.5,0,11.1,0c0.4,0,0.8-0.5,1.1-0.8c1.4-2.2,2.8-4.6,4.5-6.7C242.1,36.6,244.4,34,246.9,31.3z M248.2,101.2
		c-0.2-0.2-0.2-0.4-0.2-0.5c-3.8-3.6-7.3-7.3-10.3-11.6c-0.2-0.2-0.8-0.5-1.3-0.5c-3.3-0.1-6.7,0-10.1,0c-0.2,0-0.4,0.1-0.8,0.2
		C231.4,95.6,239,99.9,248.2,101.2z M240.3,46.9c3.3,0,6.5,0,9.7,0c0-3.9,0-7.8,0-11.8C246.1,38.7,243,42.5,240.3,46.9z M254.9,47
		c2.5,0,4.9,0,7.7,0c-2.6-3.7-5-7.1-7.3-10.5c-0.1,0.1-0.2,0.1-0.2,0.2C254.9,40,254.9,43.5,254.9,47z M254.9,96.8
		c2.8-2.6,5.3-5.2,7.3-8.3c-2.6,0-5,0-7.3,0C254.9,91.3,254.9,94,254.9,96.8z M249.7,96.2c0.1-0.1,0.2-0.1,0.2-0.2c0-2.5,0-5,0-7.5
		c-2.2,0-4.5,0-7.1,0C245.3,91.3,247.4,93.6,249.7,96.2z"/>
	<path class="st1" d="M288.2,87.6c-2.6,2-5.1,3.9-7.7,5.9c3.2,4,6.3,7.9,9.5,12.1c-2,1.4-3.8,3-5.8,4.4c-3.2-4-6.3-7.9-9.5-12.1
		c-2.6,2-5.2,4-8,6.2c-0.2-7.9-0.7-15.5-0.9-23.3C273.2,83.1,280.5,85.4,288.2,87.6z"/>
</g>
<g id="Layer_2">
	<g>
		<path class="st0" d="M254.7,138.1l-2.1-1.9l-2.1,1.9c-1.2,0.8-24.5,21.2-24.5,39.2c0,14.7,12,26.6,26.6,26.6
			c14.7,0,26.6-12,26.6-26.6C279.2,159.3,255.9,139,254.7,138.1z M260,192.1l-3-5.9c3.4-1.7,5.6-5.1,5.6-8.9h6.6
			C269.2,183.6,265.6,189.4,260,192.1z"/>
	</g>
</g>
<path class="st12" d="M486.6,386.5c3.2,2.1,4.3,5,3.4,8.7c-0.9,3.7-3.1,5.9-6.8,6.6l-49.8,8.8l37.2,57.5c1.3,2,1.6,4.2,1.1,6.4
	s-1.7,4-3.6,5.3l-21.4,13.9c-2,1.3-4.2,1.6-6.4,1.1s-4-1.7-5.3-3.6l-35.3-54.6l-33.5,47.9c-1.4,1.9-3.2,3.1-5.4,3.5
	c-1,0.2-2.1,0.2-3.2-0.1c-3.7-0.9-5.9-3.1-6.6-6.8l-34.6-196.1c-0.6-3.7,0.6-6.5,3.9-8.6c1-0.6,2-1,3-1.2c2.3-0.4,4.4,0.1,6.3,1.4
	L486.6,386.5z"/>
</svg>
