<?xml version="1.0" encoding="utf-8"?>
<!-- Generator: Adobe Illustrator 24.1.2, SVG Export Plug-In . SVG Version: 6.00 Build 0)  -->
<svg version="1.1" id="Camada_1" xmlns="http://www.w3.org/2000/svg" xmlns:xlink="http://www.w3.org/1999/xlink" x="0px" y="0px"
	 viewBox="0 0 631.7 1188.5" style="enable-background:new 0 0 631.7 1188.5;" xml:space="preserve">
<style type="text/css">
	.st0{opacity:0.5;}
	.st1{fill:#999999;}
	.st2{filter:url(#Adobe_OpacityMaskFilter);}
	.st3{mask:url(#SVGID_1_);}
	.st4{fill:#FFFFFF;}
</style>
<g class="st0">
	<g>
		<path class="st1" d="M312,498.4c-165.7,0-300,77-300,171.9c0.9,10.9,2.9,22.4,6,34.4c0,0,0,0,0,0
			c29.5,113.8,155.5,277.1,294,446.7c138.4-169.6,264.5-332.9,294-446.7c0,0,0,0,0,0c3.1-12,5.1-23.5,6-34.4
			C612,575.4,477.7,498.4,312,498.4z M312,618.8c49.7,0,90,23.1,90,51.6c0,28.5-40.3,51.6-90,51.6c-49.7,0-90-23.1-90-51.6
			C222,641.9,262.3,618.8,312,618.8z"/>
	</g>
	<defs>
		<filter id="Adobe_OpacityMaskFilter" filterUnits="userSpaceOnUse" x="12" y="498.4" width="600" height="653">
			
				<feColorMatrix  type="matrix" values="-1 0 0 0 1  0 -1 0 0 1  0 0 -1 0 1  0 0 0 1 0" color-interpolation-filters="sRGB" result="source"/>
		</filter>
	</defs>
	<mask maskUnits="userSpaceOnUse" x="12" y="498.4" width="600" height="653" id="SVGID_1_">
		<g class="st2">
			<image style="overflow:visible;" width="604" height="658" xlink:href="9387D4C1.jpg"  transform="matrix(1 0 0 1 10 496)">
			</image>
		</g>
	</mask>
	<g class="st3">
		<path class="st4" d="M312,498.4c-165.7,0-300,77-300,171.9c0.9,10.9,2.9,22.4,6,34.4c0,0,0,0,0,0
			c29.5,113.8,155.5,277.1,294,446.7c138.4-169.6,264.5-332.9,294-446.7c0,0,0,0,0,0c3.1-12,5.1-23.5,6-34.4
			C612,575.4,477.7,498.4,312,498.4z M312,618.8c49.7,0,90,23.1,90,51.6c0,28.5-40.3,51.6-90,51.6c-49.7,0-90-23.1-90-51.6
			C222,641.9,262.3,618.8,312,618.8z"/>
	</g>
</g>
</svg>
