<?xml version="1.0" encoding="utf-8"?>
<!-- Generator: Adobe Illustrator 24.1.2, SVG Export Plug-In . SVG Version: 6.00 Build 0)  -->
<svg version="1.1" id="Camada_1" xmlns="http://www.w3.org/2000/svg" xmlns:xlink="http://www.w3.org/1999/xlink" x="0px" y="0px"
	 viewBox="0 0 902.29 1241.43" style="enable-background:new 0 0 902.29 1241.43;" xml:space="preserve">
<style type="text/css">
	.st0{fill:url(#SVGID_1_);stroke:#C7C7C9;stroke-width:10;stroke-miterlimit:10;}
	.st1{fill:#FFFFFF;}
	.st2{fill:#EB8998;}
	.st3{fill:url(#SVGID_2_);}
	.st4{fill:url(#SVGID_3_);}
</style>
<g>
	<linearGradient id="SVGID_1_" gradientUnits="userSpaceOnUse" x1="10.5569" y1="620.9113" x2="887.7568" y2="620.9113">
		<stop  offset="0" style="stop-color:#EDF5F8"/>
		<stop  offset="1" style="stop-color:#CCCACD"/>
	</linearGradient>
	<path class="st0" d="M887.76,267.77c0-94.63-69.02-171.35-154.14-171.35h-71.51c-50.51,0-94.84-20.02-119.99-50.18
		c-0.29,0.15-0.58,0.31-0.87,0.46C522.8,24.5,488.46,9.59,449.15,9.59c-39.91,0-74.69,15.37-92.94,38.13
		c-0.15-0.1-0.29-0.2-0.44-0.31c-22.72,26.48-60.35,44.91-103.86,48.4c0.03,0.2,0.07,0.41,0.12,0.61h-87.33
		c-85.12,0-154.14,76.71-154.14,171.35v28.69c19.51,85.67,31.55,203.59,31.55,333.77S30.06,878.31,10.56,964v28.68
		c0,94.63,69.02,171.35,154.14,171.35h23.46c3.51-0.6,7.22-1.19,11.11-1.75v58.91c0,5.8,14.48,10.45,32.31,10.45
		s32.29-4.66,32.29-10.45v-66.63c42.09-3.27,92.74-5.47,147.9-6.13v72.26c0,6.18,16.74,11.22,37.4,11.22
		c20.66,0,37.4-5.04,37.4-11.22v-72.26c53.68,0.66,103.09,2.75,144.5,5.89v68.95c0,4.96,16.36,8.98,36.53,8.98
		c20.2,0,36.57-4.01,36.57-8.98v-60.27c2.21,0.34,4.36,0.68,6.44,1.04h23.02c85.12,0,154.14-76.71,154.14-171.35v-34.93
		c-18.69-85.13-30.16-200.48-30.16-327.51c0-127.05,11.47-242.4,30.16-327.51V267.77z M449.56,57.69
		c29.65,0,53.65,24.02,53.65,53.65s-24,53.65-53.65,53.65c-29.63,0-53.65-24.02-53.65-53.65S419.93,57.69,449.56,57.69z"/>
	<path class="st1" d="M793.25,293.44v9.15c-13.02,65.4-22.15,158.73-24.97,265.08c-4.66,1.27-9.32,2.48-13.97,3.6
		c-139.11,34.34-278.1,16.22-391.85-2.33c-69.43-11.31-129.44-22.78-174.33-22.59c-22.92,0.1-41.91,3.23-56.18,10.98
		c-4.93,2.67-9.3,5.88-13.07,9.74c-0.03-1.34-0.07-2.67-0.09-4.01c-0.05-2.06-0.1-4.11-0.15-6.17c-0.15-6.17-0.34-12.29-0.54-18.36
		c-0.05-1.73-0.12-3.45-0.17-5.17c-0.12-3.11-0.24-6.19-0.36-9.25c-0.12-3.13-0.24-6.26-0.37-9.37c-0.27-6.03-0.56-12-0.85-17.9
		c-0.1-1.94-0.19-3.89-0.31-5.83c-0.12-2.18-0.24-4.35-0.36-6.51c-0.19-3.6-0.41-7.16-0.63-10.71c-0.12-1.94-0.24-3.84-0.36-5.75
		c-0.24-3.76-0.48-7.48-0.75-11.17c-4.3-62.47-10.95-117.42-19.24-160.82c-0.59-3.13-1.19-6.19-1.8-9.18c0-0.07-0.02-0.14-0.02-0.19
		c-0.36-12.15,7.04-23.78,20.88-34.54c48.14-32.71,174.37-56.03,322.52-56.03c147.56,0,273.41,23.15,321.98,55.68
		c0.03,0.03,0.08,0.07,0.14,0.1c4.35,3.35,8.09,6.78,11.15,10.28c14.4,9.11,22.69,18.97,23.61,29.31
		C793.21,292.13,793.25,292.8,793.25,293.44z"/>
	<path class="st2" d="M778.96,961.57v9.13c0,0.65-0.03,1.31-0.1,1.95c-0.87,9.72-8.26,19.04-21.13,27.69
		c-0.07,0.07-0.12,0.12-0.19,0.14c-48.55,32.5-174.4,55.68-321.96,55.68c-146.27,0-271.18-22.75-320.65-54.81
		c-0.63-0.41-1.26-0.83-1.87-1.24c-12.65-8.58-19.92-17.83-20.79-27.46c-0.07-0.65-0.1-1.31-0.1-1.95v-5.46
		c9.15-44.68,16.44-102.95,21.08-169.86c0.26-3.69,0.49-7.41,0.75-11.17c0.12-1.9,0.24-3.81,0.36-5.73
		c0.2-3.55,0.43-7.12,0.63-10.73c0.12-2.16,0.24-4.33,0.34-6.51c0.1-1.94,0.2-3.88,0.31-5.83c0.31-5.92,0.58-11.88,0.85-17.9
		c0.12-3.09,0.25-6.21,0.37-9.35c0.14-3.08,0.24-6.17,0.36-9.27c0.05-1.72,0.12-3.45,0.17-5.17c0.2-6.09,0.39-12.21,0.54-18.36
		c0.05-2.06,0.1-4.11,0.15-6.15c0.05-2.06,0.1-4.13,0.14-6.2c0.05-2.07,0.1-4.15,0.14-6.24c0.02-0.54,0.02-1.1,0.03-1.67
		c0.07-3.6,0.12-7.24,0.17-10.88c0.19-12.51,0.27-25.16,0.27-37.96c0-12.89-0.09-25.64-0.27-38.22c-0.05-3.64-0.1-7.28-0.17-10.88
		c-0.02-0.56-0.03-1.11-0.03-1.67c-0.03-2.09-0.08-4.16-0.14-6.24c-0.02-0.73-0.03-1.44-0.05-2.18c3.77-3.84,8.16-7.07,13.09-9.74
		c14.3-7.75,33.27-10.88,56.18-10.98c44.91-0.19,104.92,11.27,174.33,22.59c113.75,18.53,252.74,36.65,391.85,2.33
		c-0.37,17.99-0.56,36.35-0.56,54.98c0,31.7,0.56,62.61,1.62,92.38C758.1,815.76,766.85,900.75,778.96,961.57z"/>
	<linearGradient id="SVGID_2_" gradientUnits="userSpaceOnUse" x1="449.1591" y1="1224.0867" x2="449.1591" y2="546.3625">
		<stop  offset="0" style="stop-color:#EA1B23"/>
		<stop  offset="1" style="stop-color:#C9141D"/>
	</linearGradient>
	<path class="st3" d="M792.56,973.73v4.44c0,19.94-20.81,38.47-56.58,53.98c-0.02,0.02-0.03,0.03-0.07,0.03
		c-0.02,0.02-0.03,0.02-0.07,0.03c-0.02,0-0.02,0.02-0.03,0.02c-3.03,0.9-5.97,2.11-8.77,3.6c-0.02,0-0.03,0.02-0.05,0.02
		c-19.43,10.35-33.03,34.05-33.03,61.59v119.65c0,3.71-11.8,6.7-26.35,6.7s-26.35-2.99-26.35-6.7v-115.96h-0.02
		c-0.34-19.75-15.78-35.63-34.8-35.7h-2.04c-1.29,0-2.55,0.07-3.81,0.19c-2.07,0.2-4.11,0.56-6.07,1.07
		c-28.53,3.45-59.19,5.92-91.32,7.24H503c0,0-0.41,1.24-0.61,1.26c-0.59,0-1.19,0.03-1.78,0.1c-0.07,0-0.15,0-0.24,0.02
		c-12.77,1.29-22.78,11.93-23.07,25.82h-0.94v114.7c0.92,4.56-11.37,8.26-26.54,8.26s-27.45-3.71-27.86-8.26v-116.14
		c-0.07,0-0.19-0.02-0.31-0.03c-0.61-12.89-10.69-23.29-23.44-24.38c-0.08-0.02-0.17-0.02-0.26-0.02c-0.66-0.07-1.99-1.33-1.99-1.33
		h-3.42c-33.42-1.51-65.21-4.45-94.6-8.62c0,0.12-0.02,0.22-0.05,0.32c-2.28-0.48-4.62-0.71-7.04-0.71
		c-18.8,0-34.2,14.89-35.41,33.71c-0.03-0.02-0.07-0.03-0.09-0.07v114.39c0,4.28-10.66,7.75-23.8,7.75c-13.14,0-23.8-3.47-23.8-7.75
		v-114.44c-0.27-28.17-14.81-52.14-35.19-61.68c-0.63-0.31-1.28-0.58-1.9-0.85c-1.12-0.46-2.24-0.88-3.4-1.26
		c-24.29-9.93-42.28-21.22-52.34-33.37c-6.2-7.51-9.38-15.35-9.15-23.43c0-0.07,0.02-0.12,0.02-0.19c0.61-2.99,1.21-6.05,1.8-9.2
		c15.22-79.63,24.87-198.13,24.87-330.45c0-27.59-0.42-54.59-1.22-80.75c14.3-7.75,33.27-10.88,56.18-10.98
		c44.91-0.19,104.92,11.27,174.33,22.59c113.75,18.53,252.74,36.65,391.85,2.33c4.66-1.12,9.32-2.33,13.97-3.6
		c-0.61,22.93-0.93,46.48-0.93,70.47C766.65,773.42,776.73,894.2,792.56,973.73z"/>
	<linearGradient id="SVGID_3_" gradientUnits="userSpaceOnUse" x1="127.3202" y1="606.4694" x2="473.6866" y2="952.8358">
		<stop  offset="0" style="stop-color:#F15C55"/>
		<stop  offset="1" style="stop-color:#EF2B2D"/>
	</linearGradient>
	<path class="st4" d="M418.23,1008.29c-79.15,5.13-176.92-1.41-222.39-63.27c-45.22-61.51,7.79-114.44,2.07-285.57
		c-1.36-40.61-5.64-78.35-10.49-113.08c44.91-0.19,104.92,11.27,174.33,22.59c0.88,19.67,1.48,41.58,1.39,66.62
		c-0.41,126.28-17.14,137.77-3.67,212.98C372.01,918.51,398,972.96,418.23,1008.29z"/>
</g>
</svg>
