<?xml version="1.0" encoding="utf-8"?>
<!-- Generator: Adobe Illustrator 24.1.2, SVG Export Plug-In . SVG Version: 6.00 Build 0)  -->
<svg version="1.1" id="Camada_1" xmlns="http://www.w3.org/2000/svg" xmlns:xlink="http://www.w3.org/1999/xlink" x="0px" y="0px"
	 viewBox="0 0 858.32 870.12" style="enable-background:new 0 0 858.32 870.12;" xml:space="preserve">
<style type="text/css">
	.st0{fill:#FF0000;}
	.st1{fill:#FFFFFF;stroke:#000000;stroke-width:40;stroke-miterlimit:10;}
	.st2{fill:#FFFFFF;}
	.st3{stroke:#000000;stroke-miterlimit:10;}
</style>
<circle class="st0" cx="429.16" cy="430" r="425"/>
<path class="st1" d="M218.92,183.19v493.62c0,11.3,9.27,20.45,20.71,20.45h379.06c11.44,0,20.71-9.15,20.71-20.45V183.19
	c0-11.3-9.27-20.45-20.71-20.45H239.63C228.19,162.74,218.92,171.89,218.92,183.19z"/>
<rect x="617.32" y="258.81" transform="matrix(0.866 0.5 -0.5 0.866 310.0041 -267.8168)" class="st2" width="74.88" height="371.52"/>
<polygon class="st3" points="757.62,305.74 601.74,575.73 568.92,593.23 567.67,556.06 723.55,286.07 "/>
<circle cx="308.64" cy="614.47" r="32.76"/>
<circle cx="396.4" cy="614.47" r="32.76"/>
<rect x="277.24" y="497.32" width="153.28" height="40"/>
<rect x="278.6" y="295.11" width="303.84" height="40"/>
<rect x="277.24" y="227.7" width="153.28" height="40"/>
<rect x="277.24" y="362.51" width="153.28" height="40"/>
<rect x="277.24" y="429.92" width="303.84" height="40"/>
<rect x="682.36" y="324.99" transform="matrix(0.866 0.5 -0.5 0.866 262.6024 -315.2185)" class="st2" width="74.3" height="14.85"/>
</svg>
