<?xml version="1.0" encoding="utf-8"?>
<!-- Generator: Adobe Illustrator 24.1.2, SVG Export Plug-In . SVG Version: 6.00 Build 0)  -->
<svg version="1.1" id="Camada_1" xmlns="http://www.w3.org/2000/svg" xmlns:xlink="http://www.w3.org/1999/xlink" x="0px" y="0px"
	 viewBox="0 0 631.71 1188.49" style="enable-background:new 0 0 631.71 1188.49;" xml:space="preserve">
<style type="text/css">
	.st0{fill:#FFFFFF;stroke:#000000;stroke-miterlimit:10;}
	.st1{fill:#FF0000;stroke:#FFFFFF;stroke-width:20;stroke-miterlimit:10;}
</style>
<circle class="st0" cx="315.85" cy="314.85" r="125.34"/>
<path class="st1" d="M312,12C146.32,12,12,146.31,12,312c0.86,18.98,2.89,39.01,6.01,60.02c0,0.01,0,0.02,0.01,0.03
	C47.5,570.54,173.57,855.47,312,1151.47c138.43-296,264.5-580.93,293.98-779.42c0.01-0.01,0.01-0.02,0.01-0.03
	c3.12-21.01,5.15-41.04,6.01-60.02C612,146.31,477.69,12,312,12z M312,222c49.71,0,90,40.29,90,90c0,49.71-40.29,90-90,90
	c-49.7,0-90-40.29-90-90C222,262.29,262.3,222,312,222z"/>
</svg>
